<svg width="22" height="22" viewBox="0 0 22 22" fill="none" xmlns="http://www.w3.org/2000/svg">
<rect width="22" height="22" fill="#1E1E1E"/>
<g clip-path="url(#clip0_0_1)">
<rect width="1920" height="4614" transform="translate(-256 -556)" fill="#0F041C"/>
<g clip-path="url(#clip1_0_1)">
<path d="M1930.36 -15.6389C1763.64 -15.6389 1853.68 3.73966 1595.66 -9.80384C1510.8 -13.7041 1470.87 1.24184 1344.64 -66.9722C1265.31 -111.073 1218.07 -146.795 1145.91 -175.592C967.552 -240.714 961.84 -131.173 612.483 -53.8484C519.038 -33.5638 460.587 -24.1202 382.377 4.28736C290.11 39.5179 230.434 76.934 120.892 61.1742C16.1527 42.7374 -55.0957 -8.90297 -161.511 -32.9445C-286.139 -57.5388 -397.745 -15.6389 -579.885 -15.6389" stroke="#3DDEED" stroke-opacity="0.05" stroke-width="0.5" stroke-linecap="round" stroke-linejoin="round"/>
<path d="M1930.36 -15.6388C1796.74 -15.3163 1813.06 2.98734 1658.43 -2.27958C1499.79 -8.64186 1473.85 2.63927 1365.56 -52.7683C1289.87 -93.0354 1239.77 -131.711 1166.83 -165.406C979.727 -246.385 975.045 -141.83 612.487 -52.149C517.055 -29.0441 458.433 -17.2409 382.382 10.4757C288.31 46.2795 229.419 81.597 120.897 64.8749C15.9085 45.3581 -54.9569 -6.60469 -161.506 -31.0915C-285.34 -55.9981 -395.021 -15.6798 -579.88 -15.6337" stroke="#3DDEED" stroke-opacity="0.05" stroke-width="0.5" stroke-linecap="round" stroke-linejoin="round"/>
<path d="M1930.36 -15.6388C1798.27 -15.2447 1814.21 4.70718 1658.43 1.69751C1500.29 -2.41263 1474.53 4.97333 1376.01 -44.1897C1299.35 -84.3084 1251.51 -122.385 1177.3 -159.013C989.485 -246.447 986.799 -152.154 602.026 -47.6293C495.165 -19.3036 437.62 -5.10496 361.464 24.7256C259.382 65.6376 199.327 89.4641 89.5221 61.4967C-15.3803 31.9631 -85.8579 -19.2576 -192.881 -34.7308C-304.338 -47.3632 -412.262 -15.6286 -579.88 -15.6388" stroke="#3DDEED" stroke-opacity="0.05" stroke-width="0.5" stroke-linecap="round" stroke-linejoin="round"/>
<path d="M1930.36 -15.6388C1802.93 -15.2806 1822.02 3.5913 1679.34 5.6694C1632.06 5.8895 1611.91 4.29763 1564.29 3.47355C1497.62 2.83886 1464.09 2.03014 1386.48 -35.6163C1310.91 -74.1892 1263.08 -112.941 1187.75 -152.261C1047.8 -221.898 989.863 -186.693 873.968 -140.243C677.727 -62.6931 625.099 -53.9302 476.512 -8.67772C274.052 53.8855 223.463 117.309 37.2194 47.3492C-71.475 4.8402 -130.869 -34.4953 -245.184 -36.3022C-362.487 -36.0104 -418.519 -15.6184 -579.885 -15.6388" stroke="#3DDEED" stroke-opacity="0.05" stroke-width="0.5" stroke-linecap="round" stroke-linejoin="round"/>
<path d="M1930.36 -15.6389C1775.22 -15.0298 1872.25 11.1717 1553.83 8.17738C1385.78 7.08202 1312.86 -91.8429 1166.83 -160.85C1010.19 -230.119 978.296 -169.849 654.324 -60.8044C406.992 21.0197 569.938 -38.5339 309.166 56.9156C68.7714 141.191 -18.0232 -20.9672 -224.261 -34.1627C-333.535 -38.6311 -413.559 -15.6133 -579.88 -15.6389" stroke="#3DDEED" stroke-opacity="0.05" stroke-width="0.5" stroke-linecap="round" stroke-linejoin="round"/>
<path d="M1930.36 -15.6389C1779.57 -14.907 1850.89 17.5186 1532.91 12.7277C1385.49 6.88751 1293.81 -102.802 1156.36 -164.008C1028.54 -216.821 969.553 -178.448 800.752 -114.298C579.145 -30.7743 552.4 -26.0857 403.296 27.5508C317.09 59.0397 280.817 77.4356 215.027 85.1798C73.7652 96.8704 -14.8296 16.024 -151.05 -21.1311C-275.759 -51.7089 -366.04 -15.5929 -579.885 -15.6338" stroke="#3DDEED" stroke-opacity="0.05" stroke-width="0.5" stroke-linecap="round" stroke-linejoin="round"/>
<path d="M1930.36 -15.6389C1785.43 -14.7534 1825.99 23.0722 1532.91 17.1809C1390.6 10.7367 1300.1 -94.2792 1166.83 -158.47C1064.53 -204.537 1007.76 -191.919 915.795 -159.151C115.53 129.562 272.73 147.779 -88.2948 1.54899C-253.86 -62.8262 -322.853 -15.4853 -579.885 -15.6338" stroke="#3DDEED" stroke-opacity="0.05" stroke-width="0.5" stroke-linecap="round" stroke-linejoin="round"/>
<path d="M1930.36 -15.6389C1822.21 -14.8251 1816.49 9.19085 1679.34 19.996C1507.19 31.2925 1463.35 14.5755 1407.39 -11.9587C1245.66 -93.7316 1146.44 -229.474 957.65 -174.22C782.706 -119.032 549.249 -9.1845 319.623 71.3753C122.779 137.747 48.5283 51.3415 -119.67 -8.32461C-260.883 -55.1741 -324.486 -15.3779 -579.88 -15.6338" stroke="#3DDEED" stroke-opacity="0.05" stroke-width="0.5" stroke-linecap="round" stroke-linejoin="round"/>
<path d="M1930.36 -15.6389C1823.95 -14.7022 1808.66 13.0912 1668.87 24.3467C1424.47 40.7617 1426.13 0.161874 1219.13 -128.051C1059.35 -223.608 992.76 -203.82 675.242 -67.4021C286.481 102.189 225.56 125.063 89.5173 81.817C-16.4001 45.4911 -85.6806 -7.39302 -192.886 -25.2105C-298.803 -39.5371 -380.729 -15.3574 -579.885 -15.6389" stroke="#3DDEED" stroke-opacity="0.05" stroke-width="0.5" stroke-linecap="round" stroke-linejoin="round"/>
<path d="M1930.36 -15.6389C1826.12 -14.5742 1807.1 14.8622 1668.87 28.0064C1426.49 47.6717 1420.93 -0.268044 1219.13 -126.838C1075.93 -213.555 1001.35 -211.493 717.079 -86.146C475.234 21.8796 298.547 122.872 152.272 101.365C-19.0429 70.4028 -70.4504 -35.3041 -297.482 -27.7595C-410.749 -22.9993 -427.698 -15.3574 -579.885 -15.6338" stroke="#3DDEED" stroke-opacity="0.05" stroke-width="0.5" stroke-linecap="round" stroke-linejoin="round"/>
<path d="M1930.36 -15.6389C1827.86 -14.4463 1806.36 16.5564 1668.87 31.6508C1428.57 54.4638 1413.78 -1.99814 1219.13 -125.681C1082.12 -209.66 998.242 -216.038 717.079 -86.9905C529.145 0.294958 333.776 117.728 183.652 109.447C16.0665 94.2345 -64.5613 -25.9884 -266.102 -27.2834C-375.51 -26.4798 -399.248 -15.2396 -579.885 -15.644" stroke="#3DDEED" stroke-opacity="0.05" stroke-width="0.5" stroke-linecap="round" stroke-linejoin="round"/>
<path d="M1930.36 -15.6388C1817.2 -14.1135 1773.08 37.1378 1585.21 39.7943C1416.36 40.7208 1380.87 -20.9109 1219.13 -125.405C1093.83 -203.482 1025.64 -202.289 884.434 -157.196C656.665 -81.9898 517.348 42.5378 298.704 102.798C71.2611 160.268 -21.4465 -12.1583 -234.722 -25.666C-332.323 -29.8119 -386.795 -15.0605 -579.88 -15.644" stroke="#3DDEED" stroke-opacity="0.05" stroke-width="0.5" stroke-linecap="round" stroke-linejoin="round"/>
<path d="M1930.36 -15.6388C1827.23 -14.0367 1809.26 19.2795 1668.87 38.3458C1424.08 67.5417 1406.89 -6.19518 1208.66 -131.762C1121.29 -185.03 1058.45 -201.619 957.65 -180.137C651.26 -109.01 443.14 124.418 204.57 120.344C34.9452 111.356 -57.4992 -16.9901 -245.184 -25.2309C-338.955 -27.6263 -388.629 -14.9939 -579.885 -15.6337" stroke="#3DDEED" stroke-opacity="0.05" stroke-width="0.5" stroke-linecap="round" stroke-linejoin="round"/>
<path d="M1930.36 -15.6388C1832.31 -13.9292 1803.28 21.7108 1668.87 41.6882C1426.79 73.5252 1404.13 -5.79089 1208.66 -131.598C1121.58 -185.552 1059.17 -202.279 957.65 -182.21C651.116 -115.854 465.763 125.232 215.027 125.744C48.0065 120.088 -51.1936 -7.44925 -224.266 -23.1886C-319.482 -29.5457 -363.449 -14.9478 -579.885 -15.6388" stroke="#3DDEED" stroke-opacity="0.05" stroke-width="0.5" stroke-linecap="round" stroke-linejoin="round"/>
<path d="M1930.36 -15.6389C1827.55 -13.6375 1801.06 26.0563 1658.43 46.5353C1416.78 76.7805 1393.87 -14.8864 1198.22 -138.006C1102.19 -195.63 1040.76 -200.964 947.184 -182.174C648.315 -117.123 482.616 125.723 225.488 131.123C53.3114 128.641 -46.8653 -5.79092 -224.266 -22.2827C-316.552 -28.5886 -356.287 -14.8199 -579.885 -15.6338" stroke="#3DDEED" stroke-opacity="0.05" stroke-width="0.5" stroke-linecap="round" stroke-linejoin="round"/>
<path d="M1930.36 -15.6388C1831.99 -13.5249 1796.75 28.4416 1658.43 49.9751C1520.94 68.7087 1466.75 45.9212 1407.39 11.6888C1242.67 -88.9662 1165.06 -221.141 957.65 -186.478C760.174 -149.886 639.663 -36.7628 486.973 53.9726C227.853 203.606 116.66 120.006 -46.4536 36.0886C-223.121 -52.9986 -241.555 -14.5793 -579.88 -15.6388" stroke="#3DDEED" stroke-opacity="0.05" stroke-width="0.5" stroke-linecap="round" stroke-linejoin="round"/>
<path d="M1930.36 -15.6388C1834.09 -13.2997 1794.47 30.4224 1658.43 52.9846C1521.42 72.9211 1466.4 48.6698 1407.39 13.7822C1241.84 -89.821 1166.77 -222.328 957.65 -190.333C760.059 -156.443 640.865 -35.2989 486.973 60.3706C232.747 213.598 111.048 119.576 -46.4536 37.1122C-221.063 -52.3844 -241.631 -14.4207 -579.88 -15.6388" stroke="#3DDEED" stroke-opacity="0.05" stroke-width="0.5" stroke-linecap="round" stroke-linejoin="round"/>
<path d="M1930.36 -15.6388C1834.98 -13.0489 1793.36 32.2394 1658.43 55.9994C1523.69 76.8521 1467.43 52.2425 1407.39 15.8808C1242.53 -89.7494 1168.11 -223.413 957.65 -194.187C760.198 -163.041 641.526 -33.574 486.973 66.7738C232.258 226.68 101.367 115.169 -56.9151 32.695C-219.794 -49.8661 -240.252 -14.2261 -579.88 -15.6388" stroke="#3DDEED" stroke-opacity="0.05" stroke-width="0.5" stroke-linecap="round" stroke-linejoin="round"/>
<path d="M1930.36 -15.6388C1835.52 -12.7981 1792.76 34.0053 1658.43 59.0091C1523.73 81.1414 1466.81 54.8171 1407.39 17.9742C1238.82 -92.544 1169.58 -224.483 957.65 -198.041C652.438 -154.058 525.506 159.075 235.95 153.491C130.703 147.666 61.5609 97.669 -46.4536 39.1699C-215.705 -50.4241 -232.97 -14.0316 -579.88 -15.6388" stroke="#3DDEED" stroke-opacity="0.05" stroke-width="0.5" stroke-linecap="round" stroke-linejoin="round"/>
<path d="M1930.36 -15.6388C1830.83 -12.3732 1788.05 39.5231 1647.96 63.8359C1521.72 82.9124 1465.74 59.2036 1396.94 13.0605C1229.92 -104.04 1163.03 -228.629 947.179 -200.534C649.072 -155.389 519.852 180.568 225.483 158.374C120.418 146.617 51.3388 92.7809 -56.9199 34.5735C-215.705 -48.351 -232.922 -13.8422 -579.88 -15.6388" stroke="#3DDEED" stroke-opacity="0.05" stroke-width="0.5" stroke-linecap="round" stroke-linejoin="round"/>
<path d="M1930.36 -15.6388C1831.39 -12.0968 1787.58 41.3708 1647.96 66.8916C1524.3 86.608 1467.75 63.4827 1396.94 14.9339C1229.35 -105.161 1164.26 -230.057 947.179 -204.69C752.408 -177.608 628.661 -13.6836 476.507 93.3542C243.04 250.527 93.2806 117.447 -56.9199 35.4385C-214.245 -47.9262 -232.64 -13.6529 -579.88 -15.6388" stroke="#3DDEED" stroke-opacity="0.05" stroke-width="0.5" stroke-linecap="round" stroke-linejoin="round"/>
<path d="M1930.36 -15.6389C1831.85 -11.7591 1786.54 43.0957 1647.96 69.4457C1524.86 89.9196 1467.76 65.8832 1396.94 16.2083C1229.87 -106.267 1164.59 -233.384 947.179 -210.264C649.981 -171.553 539.807 194.833 235.945 170.111C126.178 157.105 54.154 97.1981 -56.9199 35.7046C-212.124 -47.5884 -229.082 -13.4123 -579.88 -15.6389" stroke="#3DDEED" stroke-opacity="0.05" stroke-width="0.5" stroke-linecap="round" stroke-linejoin="round"/>
<path d="M1930.36 -15.6389C1833.05 -11.4417 1785.14 44.8667 1647.96 72.0049C1526.34 93.0572 1468.9 69.113 1396.94 17.488C1230.32 -107.393 1165 -236.711 947.179 -215.833C650.278 -179.819 543.992 207.542 235.945 175.429C130.932 160.58 61.2018 103.888 -46.4584 41.8366C-209.409 -49.6102 -226.957 -13.1462 -579.88 -15.6389" stroke="#3DDEED" stroke-opacity="0.05" stroke-width="0.5" stroke-linecap="round" stroke-linejoin="round"/>
<path d="M1930.36 -15.6389C1833.18 -11.0783 1784.69 46.4841 1647.96 74.5641C1526.41 96.4405 1468.32 71.1041 1396.94 18.7624C1230.03 -109.082 1165.47 -240.038 947.179 -221.402C757.895 -200.135 626.928 -2.35132 476.507 114.289C254.79 277.63 79.4963 113.813 -56.9199 36.2318C-210.879 -48.4995 -226.98 -12.9005 -579.88 -15.6389" stroke="#3DDEED" stroke-opacity="0.05" stroke-width="0.5" stroke-linecap="round" stroke-linejoin="round"/>
<path d="M1930.36 -15.6388C1839.02 -11.0219 1788.06 43.884 1658.43 74.8918C1530.39 102.148 1470.49 72.6806 1407.39 27.8683C1242.96 -95.349 1174.96 -238.841 957.65 -227.759C765.532 -213.345 642.22 -17.0515 486.973 112.902C268.129 287.857 98.0445 125.78 -56.9151 36.4929C-208.767 -48.1003 -223.323 -13.1768 -579.88 -15.6388" stroke="#3DDEED" stroke-opacity="0.05" stroke-width="0.5" stroke-linecap="round" stroke-linejoin="round"/>
<path d="M1930.36 -15.6388C1837.07 -10.5715 1771.07 55.7845 1637.51 81.6277C1519.56 101.155 1462.38 73.5252 1386.48 12.8814C1222.92 -122.927 1154.1 -252.394 936.732 -231.654C751.48 -207.454 616.332 19.3563 466.05 136.38C254.938 290.754 75.9724 111.566 -67.3766 30.791C-210.185 -46.4879 -223.701 -12.9567 -579.88 -15.6388" stroke="#3DDEED" stroke-opacity="0.05" stroke-width="0.5" stroke-linecap="round" stroke-linejoin="round"/>
<path d="M1930.36 -15.6388C1837.77 -10.203 1778.64 52.0019 1647.96 81.5969C1529.27 105.249 1469.29 78.5259 1396.94 21.9513C1229.53 -114.666 1165.11 -252.144 947.179 -239.071C761.477 -221.909 629.341 6.62138 476.507 135.193C267.736 301.077 84.6528 119.684 -56.9199 36.4161C-207.513 -49.0063 -223.849 -12.6804 -579.88 -15.6388" stroke="#3DDEED" stroke-opacity="0.05" stroke-width="0.5" stroke-linecap="round" stroke-linejoin="round"/>
<path d="M1930.36 -15.6389C1838.48 -9.86009 1777.65 53.3839 1647.96 83.5932C1525.98 108.612 1466.16 77.927 1396.94 22.6679C1233.91 -113.187 1159.64 -264.484 936.732 -244.548C759.825 -221.407 626.765 12.994 476.512 142.154C268.383 310.854 84.739 117.063 -67.3718 30.1869C-210.007 -47.87 -224.247 -12.404 -579.88 -15.6389" stroke="#3DDEED" stroke-opacity="0.05" stroke-width="0.5" stroke-linecap="round" stroke-linejoin="round"/>
<path d="M1930.36 -15.6388C1837.88 -9.41472 1777.89 54.5253 1647.96 85.5843C1528.39 110.803 1468.31 81.5356 1396.94 23.3794C1234.45 -114.825 1158.56 -270.242 936.732 -250.992C757.278 -227.549 617.002 33.0175 466.05 157.76C267.339 310.854 82.6706 116.152 -67.3766 29.885C-209.49 -48.3357 -222.308 -12.107 -579.88 -15.6388" stroke="#3DDEED" stroke-opacity="0.05" stroke-width="0.5" stroke-linecap="round" stroke-linejoin="round"/>
<path d="M1930.36 -15.6389C1840.36 -9.19983 1774.83 56.4396 1647.96 87.5753C1525.52 114.089 1465.45 81.039 1396.94 24.0857C1235.98 -115.588 1157.68 -275.96 936.732 -257.446C759.279 -234.265 616.859 37.8646 466.05 164.875C270.054 318.398 82.3834 116.259 -67.3766 29.5727C-209.687 -49.1701 -223.476 -11.841 -579.88 -15.6389" stroke="#3DDEED" stroke-opacity="0.05" stroke-width="0.5" stroke-linecap="round" stroke-linejoin="round"/>
<path d="M1930.36 -15.6389C1837.1 -8.55488 1777.66 56.8644 1647.96 89.4896C1525.69 116.679 1465.48 82.8459 1396.94 24.7306C1238.34 -115.603 1156.9 -281.892 936.732 -263.824C756.521 -240.059 608.255 58.9118 455.594 180.235C260.253 322.708 70.7872 101.892 -88.2948 17.9025C-216.787 -46.1194 -231.989 -11.6106 -579.885 -15.644" stroke="#3DDEED" stroke-opacity="0.05" stroke-width="0.5" stroke-linecap="round" stroke-linejoin="round"/>
<path d="M1930.36 -15.6388C1837.3 -8.16069 1776.94 57.75 1647.96 90.9434C1525.61 118.783 1465.6 84.3354 1396.94 24.9866C1239.45 -117.082 1155.44 -288.904 936.732 -269.823C762.961 -245.408 618.223 47.2417 466.05 178.505C276.671 329.634 89.6705 119.842 -67.3766 28.7436C-209.677 -50.0657 -226.463 -11.1499 -579.88 -15.6388" stroke="#3DDEED" stroke-opacity="0.05" stroke-width="0.5" stroke-linecap="round" stroke-linejoin="round"/>
<path d="M1930.36 -15.6389C1838.55 -7.85882 1774.75 59.0551 1647.96 92.402C1521.59 121.828 1461.96 82.5182 1396.94 25.2424C1240.74 -118.336 1154.13 -295.917 936.732 -275.822C764.732 -250.173 619.779 51.6129 466.05 185.088C276.244 337.209 87.6308 113.746 -77.8382 22.4733C-212.588 -47.9928 -229.202 -10.7456 -579.88 -15.6389" stroke="#3DDEED" stroke-opacity="0.05" stroke-width="0.5" stroke-linecap="round" stroke-linejoin="round"/>
<path d="M1930.36 -15.6388C1837.15 -7.33148 1766.14 65.6837 1637.51 96.3434C1420.03 141.14 1363.77 -38.9689 1177.3 -201.404C1125.17 -244.568 1081.41 -270.826 1009.93 -280.689C979.679 -283.909 956.238 -284.902 926.27 -280.172C753.634 -241.18 598.804 95.3709 445.137 207.732C259.774 329.014 69.5662 93.8609 -98.7468 11.4226C-224.309 -46.0119 -285.79 -10.638 -475.285 -12.624C-526.984 -13.5812 -523.757 -14.7942 -579.88 -15.6388" stroke="#3DDEED" stroke-opacity="0.05" stroke-width="0.5" stroke-linecap="round" stroke-linejoin="round"/>
<path d="M1930.36 -15.6388C1838.67 -7.05 1773.36 60.9388 1647.96 95.3094C1529.25 124.224 1469.12 91.706 1396.94 25.7544C1242.12 -121.888 1151.7 -309.885 936.732 -287.819C768.845 -259.893 621.388 61.6042 466.05 198.252C285.404 344.226 103.105 125.334 -67.3766 27.2387C-208.389 -49.9736 -221.609 -9.85493 -579.88 -15.6388" stroke="#3DDEED" stroke-opacity="0.05" stroke-width="0.5" stroke-linecap="round" stroke-linejoin="round"/>
<path d="M1930.36 -15.6389C1840.69 -6.86069 1770.3 62.4333 1647.96 96.6811C1429.1 151.152 1373.58 -24.5041 1187.75 -200.027C1119.42 -261.93 1044.61 -305.279 936.732 -293.475C842.09 -276.753 758.767 -166.235 685.699 -68.5179C510.831 167.516 437.151 330.662 204.565 210.823C31.3351 116.28 -54.9425 -23.3525 -255.645 -21.2436C-326.157 -19.4112 -372.695 -11.6823 -464.833 -12.1481C-518.083 -12.8596 -520.942 -14.6101 -579.885 -15.6338" stroke="#3DDEED" stroke-opacity="0.05" stroke-width="0.5" stroke-linecap="round" stroke-linejoin="round"/>
<path d="M1930.36 -15.6388C1838.72 -6.30784 1771.23 62.4436 1647.96 97.6281C1527.95 128.119 1468.42 93.3951 1396.94 25.8055C1245.82 -123.327 1149.01 -323.853 936.732 -297.539C772.987 -265.631 623.94 72.1227 466.05 210.025C284.441 354.955 96.7757 108.863 -88.2996 15.4201C-215.312 -44.7784 -225.037 -8.85685 -579.89 -15.644" stroke="#3DDEED" stroke-opacity="0.05" stroke-width="0.5" stroke-linecap="round" stroke-linejoin="round"/>
<path d="M1930.36 -15.6389C1838.82 -5.97004 1770.08 63.0527 1647.96 98.5749C1528.88 129.46 1469.36 95.2735 1396.94 25.6673C1247.7 -124.023 1147.76 -330.84 936.732 -301.598C770.799 -266.276 616.639 96.8808 455.594 223.66C282.167 345.941 88.5454 102.818 -88.2948 15.1642C-214.704 -43.5602 -222.245 -8.18635 -579.885 -15.644" stroke="#3DDEED" stroke-opacity="0.05" stroke-width="0.5" stroke-linecap="round" stroke-linejoin="round"/>
<path d="M1930.36 -15.6388C1838.48 -5.59123 1769.43 63.5237 1647.96 99.522C1528.49 131.129 1469.32 96.2205 1396.94 25.5343C1251.11 -123.076 1147.14 -337.878 936.732 -305.652C773.815 -268.011 616.739 103.862 455.594 228.953C281.904 349.237 87.1809 94.8385 -98.7515 10.1532C-224.888 -43.2121 -284.263 -7.3776 -475.289 -11.5696C-526.658 -13.1103 -526.941 -14.4513 -579.885 -15.6388" stroke="#3DDEED" stroke-opacity="0.05" stroke-width="0.5" stroke-linecap="round" stroke-linejoin="round"/>
<path d="M1930.36 -15.6389C1838.11 -5.18691 1758.32 70.6639 1637.51 103.289C1420.34 154.484 1368.56 -41.6407 1177.3 -224.99C1126.59 -271.169 1082.37 -301.209 1009.93 -310.955C979.191 -313.97 956.2 -314.558 926.27 -307.101C766.437 -252.799 605.89 132.065 445.137 241.35C277.887 340.029 85.0933 92.0284 -98.7468 9.99449C-225.089 -42.3266 -283.98 -6.56379 -475.285 -11.3291C-527.329 -13.0284 -527.171 -14.3643 -579.88 -15.6389" stroke="#3DDEED" stroke-opacity="0.05" stroke-width="0.5" stroke-linecap="round" stroke-linejoin="round"/>
<path d="M1930.36 -15.6389C1838.7 -4.93616 1766.98 64.7571 1647.96 101.313C1530.56 133.626 1471.43 100.208 1396.94 25.1759C1256.87 -122.021 1145.83 -351.657 936.732 -313.1C778.21 -270.468 619.99 115.594 455.594 239.088C287.209 350.921 96.2635 94.8384 -98.7515 9.9023C-224.677 -40.9447 -286.575 -5.77047 -475.289 -11.063C-526.745 -12.9005 -527.798 -14.2825 -579.885 -15.6338" stroke="#3DDEED" stroke-opacity="0.05" stroke-width="0.5" stroke-linecap="round" stroke-linejoin="round"/>
<path d="M1930.36 -15.6389C1838.27 -4.65465 1766.1 64.8492 1647.96 101.764C1530.01 134.839 1470.98 100.228 1396.94 24.6487C1261.7 -119.339 1179.17 -290.809 1020.4 -315.899C876.778 -332.504 838.806 -264.51 633.401 35.0136C476.138 261.384 419.316 293.799 298.704 253.107C161.302 201.59 56.9215 79.5853 -88.2948 14.4578C-212.468 -37.5614 -219.262 -5.40706 -579.885 -15.6389" stroke="#3DDEED" stroke-opacity="0.05" stroke-width="0.5" stroke-linecap="round" stroke-linejoin="round"/>
<path d="M1930.36 -15.6388C1837.8 -4.36789 1765.18 64.9569 1647.96 102.214C1428.87 164.788 1376.74 -31.1785 1187.75 -224.514C1138.71 -272.479 1093.33 -307.5 1020.4 -318.064C990.203 -321.141 965.972 -321.279 936.737 -314.497C782.515 -264.735 625.161 127.546 455.598 245.291C295.444 342.471 112.446 100.996 -88.2901 14.463C-211.3 -34.9867 -214.149 -4.34229 -579.88 -15.6388" stroke="#3DDEED" stroke-opacity="0.05" stroke-width="0.5" stroke-linecap="round" stroke-linejoin="round"/>
<path d="M1930.36 -15.6388C1842.24 -4.68529 1769.39 59.9611 1658.43 99.2813C1437.49 170.638 1391.06 -9.49667 1198.22 -216.729C1129.53 -287.354 1057.13 -337.141 947.184 -317.87C791.889 -278.171 641.77 109.938 466.055 241.427C306.801 347.497 128.112 109.703 -77.8333 18.7932C-205.023 -33.8044 -208.236 -3.28285 -579.885 -15.6338" stroke="#3DDEED" stroke-opacity="0.05" stroke-width="0.5" stroke-linecap="round" stroke-linejoin="round"/>
<path d="M1930.36 -15.6389C1836.97 -3.79984 1762.82 65.4174 1647.96 103.11C1435.63 165.95 1389.14 -13.2793 1198.21 -219.651C1129.79 -290.363 1057.02 -340.381 947.179 -318.822C796.442 -276.692 653.97 95.9543 476.507 237.291C313.571 354.622 142.04 111.673 -77.8381 18.614C-203.936 -31.3578 -206.431 -2.28992 -579.89 -15.6338" stroke="#3DDEED" stroke-opacity="0.05" stroke-width="0.5" stroke-linecap="round" stroke-linejoin="round"/>
<path d="M1930.36 -15.6389C1837.99 -3.72309 1759.48 66.2517 1647.96 103.443C1530.22 138.878 1472.33 103.381 1396.94 22.4426C1245.2 -147.291 1152.32 -363.808 947.179 -318.822C798.19 -273.416 656.325 102.997 476.507 240.377C315.433 351.116 148.355 109.641 -77.8381 18.4143C-201.547 -28.2048 -203.233 -1.17409 -579.89 -15.6389" stroke="#3DDEED" stroke-opacity="0.05" stroke-width="0.5" stroke-linecap="round" stroke-linejoin="round"/>
<path d="M1930.36 -15.6388C1837.98 -3.66671 1756.54 66.6817 1647.96 103.381C1531 139.113 1473.16 104.077 1396.94 21.4855C1244.5 -150.557 1152.38 -366.521 947.179 -315.541C799.99 -266.112 659.093 110.864 476.507 241.401C317.928 342.793 153.507 105.234 -77.8381 18.1636C-137.524 -2.79146 -181.395 -9.35334 -245.189 -9.46595C-461.093 -7.09609 -205.636 -0.0377083 -579.89 -15.644" stroke="#3DDEED" stroke-opacity="0.05" stroke-width="0.5" stroke-linecap="round" stroke-linejoin="round"/>
<path d="M1930.36 -15.6388C1835.87 -3.33399 1757.13 65.9242 1647.96 103.325C1427.62 171.611 1376.92 -43.1609 1187.75 -236.594C1139.13 -283.817 1094.04 -317.384 1020.4 -321.202C981.226 -321.427 959.465 -316.764 936.737 -308.426C790.874 -239.951 640.468 159.48 455.598 253.952C307.021 317.16 142.715 89.72 -88.2901 14.509C-148.344 -3.59505 -191.919 -8.13515 -255.636 -7.53629C-518.127 -2.67885 -450.287 -9.7884 -579.876 -15.6388" stroke="#3DDEED" stroke-opacity="0.05" stroke-width="0.5" stroke-linecap="round" stroke-linejoin="round"/>
<path d="M1930.36 -15.6388C1837.55 -3.49267 1764.99 59.2957 1658.43 99.6294C1539.51 140.905 1481.81 109.201 1407.39 31.1083C1250.43 -142.096 1158.54 -373.835 947.184 -308.979C799.602 -250.25 657.154 145.343 466.055 249.13C313.848 319.729 158.482 88.5274 -88.2949 14.5295C-148.244 -2.08508 -192.599 -6.22594 -255.641 -5.71921C-516.661 -1.46575 -422.029 -7.99182 -579.88 -15.6388" stroke="#3DDEED" stroke-opacity="0.05" stroke-width="0.5" stroke-linecap="round" stroke-linejoin="round"/>
<path d="M1930.36 -15.6389C1834.81 -3.07302 1753.72 66.0111 1647.96 103.202C1529.82 140.889 1472.25 102.47 1396.94 18.6242C1260.73 -139.153 1179.07 -318.479 1020.4 -318.607C980.943 -316.785 959.321 -310.904 936.732 -301.214C795.27 -225.609 655.617 155.82 466.05 249.647C315.213 312.517 166.114 84.3353 -88.2996 14.5448C-148.368 -0.636633 -193.733 -4.31682 -255.645 -3.91246C-502.245 -0.431893 -437.187 -8.26316 -579.885 -15.644" stroke="#3DDEED" stroke-opacity="0.05" stroke-width="0.5" stroke-linecap="round" stroke-linejoin="round"/>
<path d="M1930.36 -15.6389C1832.95 -2.81199 1753.43 65.4788 1647.96 103.013C1530.72 140.895 1473.31 103.258 1396.94 17.5544C1245.58 -159.074 1153.46 -376.948 947.179 -301.307C802.829 -234.802 671.828 144.201 476.507 244.656C324.918 311.698 188.502 93.4001 -67.3766 19.8271C-215.365 -19.6774 -235.924 13.0195 -548.51 -13.6325C-559.34 -14.431 -560.317 -14.5538 -579.89 -15.6389" stroke="#3DDEED" stroke-opacity="0.05" stroke-width="0.5" stroke-linecap="round" stroke-linejoin="round"/>
<path d="M1930.36 -15.6388C1831.67 -2.78633 1752.63 64.88 1647.96 102.439C1530.52 140.751 1473.35 102.317 1396.94 16.1418C1243.18 -164.07 1154.1 -376.589 947.179 -293.583C805.99 -223.7 680.978 138.008 486.969 237.665C330.17 307.665 207.534 92.9651 -56.9198 21.332C-214.321 -18.2749 -250.178 15.7886 -538.049 -12.5524C-553.643 -13.96 -556.956 -14.2722 -579.885 -15.6388" stroke="#3DDEED" stroke-opacity="0.05" stroke-width="0.5" stroke-linecap="round" stroke-linejoin="round"/>
<path d="M1930.36 -15.6389C1801.67 0.960361 1703.86 108.029 1574.75 116.93C1358.85 120.282 1267.34 -306.261 1041.32 -307.746C955.84 -303.415 917.37 -273.257 873.972 -223.685C752.978 -76.4925 649.847 153.885 497.44 231.4C376.574 285.149 315.093 196.942 120.902 88.9419C-94.2654 -27.2527 -228.249 10.7315 -412.525 -0.298801C-489.84 -5.54525 -515.005 -11.4981 -579.876 -15.6338" stroke="#3DDEED" stroke-opacity="0.05" stroke-width="0.5" stroke-linecap="round" stroke-linejoin="round"/>
<path d="M1930.36 -15.6389C1832.16 -3.09349 1759.89 57.279 1658.43 97.4796C1540.05 140.705 1483.1 107.471 1407.39 25.2168C1248.39 -155.88 1161.7 -378.944 947.184 -278.145C805.535 -198.343 679.47 174.625 476.512 237.68C322.175 275.306 215.089 67.2345 -67.3718 16.4386C-123.869 7.18442 -177.187 4.16963 -234.722 3.54517C-514.717 2.57778 -415.359 -4.44989 -579.88 -15.644" stroke="#3DDEED" stroke-opacity="0.05" stroke-width="0.5" stroke-linecap="round" stroke-linejoin="round"/>
<path d="M1930.36 -15.6388C1827.4 -2.63278 1750.69 62.8992 1647.96 100.73C1530 140.265 1473.53 99.5475 1396.94 11.8986C1261.31 -149.073 1180.31 -324.314 1020.4 -295.937C981.393 -287.215 959.508 -277.797 936.732 -264.187C800.158 -168.154 677.181 186.628 476.512 235.351C321.83 262.853 224.425 61.6605 -56.9151 16.8123C-222.264 -6.98351 -248.559 20.9993 -538.044 -11.9894C-553.734 -13.6324 -556.913 -13.9805 -579.88 -15.644" stroke="#3DDEED" stroke-opacity="0.05" stroke-width="0.5" stroke-linecap="round" stroke-linejoin="round"/>
<path d="M1930.36 -15.6389C1825.7 -2.59697 1750.92 61.8652 1647.96 100.023C1530.38 139.733 1474.1 98.9793 1396.94 10.3579C1240.02 -176.426 1157.18 -374.875 947.179 -261.689C806.847 -173.073 690.343 182.743 486.969 230.243C325.857 257.872 237.688 54.8324 -46.4583 16.2595C-105.986 9.07315 -174.553 7.62463 -234.727 7.15373C-475.194 6.54974 -454.965 -6.06731 -579.885 -15.644" stroke="#3DDEED" stroke-opacity="0.05" stroke-width="0.5" stroke-linecap="round" stroke-linejoin="round"/>
<path d="M1930.36 -15.6389C1790.21 1.38518 1692.22 113.285 1564.29 114.452C1356.97 103.509 1262.38 -333.374 1030.87 -284.221C944.033 -261.357 911.715 -228.532 863.521 -166.015C740.721 -0.708292 644.063 201.446 486.973 225.155C364.241 236.257 289.607 125.375 120.897 52.8362C-11.076 -0.703173 -111.435 10.5524 -318.395 8.54082C-439.792 6.48319 -487.7 -8.14544 -579.88 -15.644" stroke="#3DDEED" stroke-opacity="0.05" stroke-width="0.5" stroke-linecap="round" stroke-linejoin="round"/>
<path d="M1930.36 -15.6388C1827.32 -3.43126 1757.58 54.0646 1658.43 94.0042C1542.08 137.307 1485.68 104.768 1407.39 18.5936C1241.04 -172.751 1166.27 -372.274 947.184 -238.851C849.77 -170.918 777.952 -0.616102 654.324 130.356C473.041 312.19 367.42 177.005 204.57 82.2982C30.7078 -15.3164 -57.4275 14.9799 -328.857 9.66182C-440.975 6.54978 -494.077 -8.25799 -579.88 -15.6388" stroke="#3DDEED" stroke-opacity="0.05" stroke-width="0.5" stroke-linecap="round" stroke-linejoin="round"/>
<path d="M1930.36 -15.6389C1825.93 -3.57978 1757.49 52.9539 1658.43 92.9395C1542.01 136.339 1485.99 103.356 1407.39 16.715C1233.27 -183.715 1172.77 -358.7 957.65 -234.167C812.956 -140.991 709.83 193.861 507.892 214.688C334.077 222.263 257.184 15.9677 -25.5353 7.23557C-105.124 5.89965 -60.4629 10.2504 -287.02 11.4225C-429.546 11.2229 -479.862 -6.56898 -579.885 -15.6441" stroke="#3DDEED" stroke-opacity="0.05" stroke-width="0.5" stroke-linecap="round" stroke-linejoin="round"/>
<path d="M1930.36 -15.6388C1824.44 -3.73837 1757.67 51.7511 1658.43 91.8698C1541.06 135.715 1485.33 100.894 1407.39 14.8315C1230.39 -189.022 1173.29 -355.931 957.65 -223.117C855.084 -153.475 788.346 13.1424 664.781 136.621C488.486 302.127 375.909 153.942 215.027 61.8448C45.7801 -30.8766 -27.484 15.1437 -307.943 12.6817C-431.672 10.665 -485.856 -6.65079 -579.885 -15.6388" stroke="#3DDEED" stroke-opacity="0.05" stroke-width="0.5" stroke-linecap="round" stroke-linejoin="round"/>
<path d="M1930.36 -15.6388C1817.21 -3.29814 1751.64 55.8664 1647.96 94.5775C1530.53 134.507 1473.88 89.3106 1396.94 0.755683C1224.33 -204.153 1161.31 -356.576 947.179 -203.968C806.487 -92.1857 703.802 231.748 497.43 205.736C325.799 174.636 250.773 -18.2646 -25.5401 -1.24051C-138.692 7.11286 -102.874 12.216 -276.564 13.859C-424.691 14.3453 -474.542 -5.07425 -579.885 -15.6388" stroke="#3DDEED" stroke-opacity="0.05" stroke-width="0.5" stroke-linecap="round" stroke-linejoin="round"/>
<path d="M1930.36 -15.6389C1816.12 -3.66161 1751.32 54.7044 1647.96 93.0572C1530.16 132.853 1473.15 85.8044 1396.94 -1.6347C1264.88 -157.723 1185.29 -311.405 1030.86 -241.733C1000.63 -226.664 973.565 -210.1 947.179 -190.481C805.152 -73.8053 705.401 243.029 497.43 198.293C397.67 171.478 324.578 91.0354 215.027 32.2394C128.256 -11.6925 64.357 -17.5788 -35.9968 -5.49914C-365.867 37.2095 -428.981 0.161894 -579.885 -15.644" stroke="#3DDEED" stroke-opacity="0.05" stroke-width="0.5" stroke-linecap="round" stroke-linejoin="round"/>
<path d="M1930.36 -15.6389C1814.79 -3.99431 1751.5 53.3429 1647.96 91.537C1529.99 131.118 1473.02 82.984 1396.94 -4.01993C1264.84 -159.484 1185.61 -309.394 1030.86 -231.711C1001.43 -215.587 973.484 -197.355 947.179 -176.989C803.72 -55.2406 706.785 254.602 497.43 190.856C392.034 153.322 311.488 59.567 194.108 6.86197C105.863 -29.6277 41.9402 -24.6627 -56.9151 -6.80948C-321.867 41.8827 -465.168 -3.10369 -579.88 -15.6389" stroke="#3DDEED" stroke-opacity="0.05" stroke-width="0.5" stroke-linecap="round" stroke-linejoin="round"/>
<path d="M1930.36 -15.6388C1813.33 -4.32697 1751.87 51.9303 1647.96 90.0169C1530.21 129.245 1473.3 80.645 1396.94 -6.4102C1264.75 -161.296 1185.94 -307.408 1030.86 -221.699C1001.79 -204.332 973.086 -184.359 947.179 -163.502C802.83 -37.1057 708.068 266.338 497.43 183.414C393.543 137.327 310.344 40.9614 194.109 -8.25797C95.4017 -46.2883 26.6381 -29.7147 -77.8333 -6.18499C-301.327 43.3875 -483.903 -4.71088 -579.885 -15.6337" stroke="#3DDEED" stroke-opacity="0.05" stroke-width="0.5" stroke-linecap="round" stroke-linejoin="round"/>
<path d="M1930.36 -15.6389C1780.24 -1.7627 1694.24 98.0835 1574.75 102.803C1363.67 97.7662 1273.74 -345.663 1041.32 -217.993C843.727 -98.7682 820.003 60.5241 675.242 166.18C488.242 288.737 367.487 14.468 152.277 -35.729C20.3324 -61.1064 -65.1791 5.72564 -213.8 13.5057C-421.589 22.0434 -446.725 0.115781 -579.876 -15.6389" stroke="#3DDEED" stroke-opacity="0.05" stroke-width="0.5" stroke-linecap="round" stroke-linejoin="round"/>
<path d="M1930.36 -15.6388C1816.88 -5.64752 1758.83 43.7509 1658.43 83.0455C1541.59 125.212 1486.03 86.3418 1407.39 0.438344C1331.2 -85.803 1288.33 -151.831 1219.13 -204.46C1121.71 -271.297 1062.98 -229.689 968.098 -154.232C807.613 -22.1649 721.038 273.008 518.348 179.058C432.492 134.471 353.913 46.3204 246.407 -15.1065C18.3791 -137.049 -27.5462 68.4834 -454.371 3.9752C-512.558 -5.20224 -528.459 -9.34819 -579.885 -15.6439" stroke="#3DDEED" stroke-opacity="0.05" stroke-width="0.5" stroke-linecap="round" stroke-linejoin="round"/>
<path d="M1930.36 -15.6388C1815.32 -6.05192 1760.53 41.77 1658.43 81.1261C1541.85 122.524 1486.29 83.1632 1407.39 -2.6072C1328.17 -91.6944 1281.04 -163.22 1208.66 -209.957C1116.18 -262.549 1057.71 -217.594 957.65 -132.55C803.083 4.4819 716.346 290.59 507.892 164.394C425.784 110.609 342.767 17.232 235.95 -37.9503C11.2978 -144.758 -26.8807 73.2027 -475.289 0.735181C-535.904 -9.32776 -537.465 -10.3105 -579.885 -15.6338" stroke="#3DDEED" stroke-opacity="0.05" stroke-width="0.5" stroke-linecap="round" stroke-linejoin="round"/>
<path d="M1930.36 -15.6388C1814.55 -6.5535 1760.48 40.4649 1658.43 79.2016C1541.9 119.909 1486.4 79.8004 1407.39 -5.66289C1326.58 -95.9836 1280.56 -164.761 1208.66 -208.288C1121.02 -254.447 1065.49 -217.543 947.184 -109.967C798.65 32.9663 712.53 296.645 507.892 155.15C427.556 95.7393 337.769 -8.91314 225.488 -59.97C4.67617 -150.414 -27.5271 72.4963 -475.289 0.832468C-535.004 -9.01549 -535.741 -9.96753 -579.885 -15.6388" stroke="#3DDEED" stroke-opacity="0.05" stroke-width="0.5" stroke-linecap="round" stroke-linejoin="round"/>
<path d="M1930.36 -15.6388C1813.48 -7.01932 1761.18 38.8576 1658.43 77.2821C1541.29 117.503 1486.24 76.156 1407.39 -8.71356C1329.86 -94.8167 1287.19 -156.868 1219.13 -200.698C1122.9 -255.081 1065.14 -206.553 947.184 -96.6593C845.796 2.71602 778.062 151.423 664.781 191.911C507.523 234.614 417.793 -2.70955 215.027 -81.0582C50.9462 -136.461 -39.9085 -5.78067 -224.266 9.19089C-416.226 22.9443 -446.074 1.9585 -579.885 -15.6388" stroke="#3DDEED" stroke-opacity="0.05" stroke-width="0.5" stroke-linecap="round" stroke-linejoin="round"/>
<path d="M1930.36 -15.6389C1812.5 -7.52098 1761.57 37.3886 1658.43 75.3626C1541.17 114.964 1485.94 72.3734 1407.39 -11.7591C1330.35 -96.7925 1286.93 -158.404 1219.13 -199.439C1127.83 -247.348 1070.48 -206.4 936.732 -72.9147C840.927 27.7812 773.676 165.453 664.781 196.164C509.797 226.22 429.141 -9.87036 225.488 -94.0489C57.0077 -155.266 -37.9742 -9.36875 -224.266 7.74745C-413.861 23.1439 -445.025 2.5317 -579.885 -15.6287" stroke="#3DDEED" stroke-opacity="0.05" stroke-width="0.5" stroke-linecap="round" stroke-linejoin="round"/>
<path d="M1930.36 -15.6388C1811.87 -8.07373 1761.09 36.2165 1658.43 73.2692C1541.48 111.919 1486.41 69.0823 1407.39 -15.0861C1327.98 -102.105 1279.95 -168.902 1208.66 -203.462C1128.91 -235.467 1072.83 -204.654 926.266 -49.252C830.772 57.2637 762.86 187.483 654.324 200.346C502.199 204.589 417.506 -45.7253 215.031 -114.63C52.1192 -161.413 -41.7615 -13.1615 -224.261 5.66428C-412.142 22.9801 -443.402 2.98731 -579.88 -15.644" stroke="#3DDEED" stroke-opacity="0.05" stroke-width="0.5" stroke-linecap="round" stroke-linejoin="round"/>
<path d="M1930.36 -15.6389C1811.15 -8.6624 1761.38 34.6911 1658.43 70.8686C1541.28 108.469 1486.27 64.5319 1407.39 -18.9045C1327.06 -106.2 1279.63 -170.698 1208.66 -202.346C1117.3 -235.35 1062.61 -177.7 936.737 -49.4823C839.677 53.6398 772.723 184.673 664.785 199.66C508.097 207.056 433.856 -50.5674 225.493 -128.01C59.3871 -180.736 -38.7404 -22.4055 -213.8 1.25211C-403.792 23.323 -444.958 2.80301 -579.876 -15.6389" stroke="#3DDEED" stroke-opacity="0.05" stroke-width="0.5" stroke-linecap="round" stroke-linejoin="round"/>
<path d="M1930.36 -15.6388C1810.6 -9.26629 1761.15 33.3553 1658.43 68.463C1541.71 104.809 1486.84 60.729 1407.39 -22.7279C1331.39 -104.644 1286.26 -163.978 1219.13 -196.971C1120.35 -237.187 1064.89 -170.007 936.732 -38.6157C839.079 65.3663 772.264 192.77 664.781 200.218C507.231 196.415 435.058 -71.4917 225.488 -144.947C59.2004 -193.926 -38.0269 -28.2303 -213.804 -2.08507C-399.306 21.8797 -436.828 3.9394 -579.88 -15.6388" stroke="#3DDEED" stroke-opacity="0.05" stroke-width="0.5" stroke-linecap="round" stroke-linejoin="round"/>
<path d="M1930.36 -15.6389C1810.9 -9.94204 1758.39 32.8638 1658.43 66.0572C1541.8 101.257 1487.03 56.5215 1407.39 -26.5515C1331.26 -107.915 1286.06 -165.897 1219.13 -196.27C1118.38 -233.369 1063.42 -158.45 936.732 -27.7595C838.475 77.0824 771.742 200.812 664.781 200.76C506.46 185.671 436.236 -92.4878 225.488 -161.894C57.113 -207.659 -36.7198 -30.6105 -224.266 -3.94319C-403.749 19.4073 -428.986 5.00393 -579.885 -15.644" stroke="#3DDEED" stroke-opacity="0.05" stroke-width="0.5" stroke-linecap="round" stroke-linejoin="round"/>
<path d="M1930.36 -15.6389C1768.86 -8.79546 1690.91 80.3736 1574.75 75.4599C1426.96 59.3878 1346.38 -153.649 1208.66 -199.009C1110.19 -222.743 1055.35 -149.994 832.136 104.2C697.084 252.723 620.287 224.49 497.435 68.6728C420.187 -31.4345 299.312 -216.647 131.358 -179.886C-1.57692 -143.877 -69.1817 -29.2796 -234.718 -5.64249C-400.555 17.0529 -424.796 5.61305 -579.876 -15.6338" stroke="#3DDEED" stroke-opacity="0.05" stroke-width="0.5" stroke-linecap="round" stroke-linejoin="round"/>
<path d="M1930.36 -15.6388C1809 -11.2011 1760.18 29.3527 1658.43 61.0309C1541.91 93.8097 1487.26 47.5898 1407.39 -34.5465C1337.19 -108.273 1287.05 -169.47 1219.13 -195.292C1113.68 -226.131 1058.42 -132.714 947.184 -18.5666C842.708 90.15 779.264 205.567 675.242 201.769C512.344 179.862 449.594 -117.906 235.95 -192.267C66.8754 -240.98 -31.6208 -52.625 -203.343 -14.6714C-388.294 20.4925 -456.684 1.04233 -579.88 -15.6439" stroke="#3DDEED" stroke-opacity="0.05" stroke-width="0.5" stroke-linecap="round" stroke-linejoin="round"/>
<path d="M1930.36 -15.6388C1808.62 -11.9535 1759.94 27.8017 1658.43 58.052C1543.82 88.768 1489.65 44.616 1407.39 -39.2964C1339.76 -109.655 1287.78 -171.896 1219.13 -195.733C1112.43 -223.378 1056.39 -124.222 947.184 -12.0815C842.44 96.3741 778.641 208.315 675.242 198.902C510.573 167.695 450.825 -137.095 235.95 -208.073C68.4698 -253.177 -34.1727 -59.5759 -203.343 -19.6927C-388.72 18.1995 -456.923 0.499749 -579.88 -15.6337" stroke="#3DDEED" stroke-opacity="0.05" stroke-width="0.5" stroke-linecap="round" stroke-linejoin="round"/>
<path d="M1930.36 -15.6389C1808.2 -12.7265 1759.9 26.1689 1658.43 55.0678C1543.29 84.3558 1489.1 38.6324 1407.39 -44.0567C1340.88 -112.568 1288.1 -174.506 1219.13 -196.188C1111.37 -220.511 1055.69 -116.396 947.184 -5.61694C844.58 100.105 783.903 202.076 685.704 197.536C518.779 173.254 459.869 -140.934 246.411 -220.634C76.3554 -273.8 -25.8705 -75.9551 -192.881 -27.3551C-374.787 18.2454 -478.167 -2.59702 -579.88 -15.6389" stroke="#3DDEED" stroke-opacity="0.05" stroke-width="0.5" stroke-linecap="round" stroke-linejoin="round"/>
<path d="M1930.36 -15.6389C1767.68 -12.8032 1689.61 70.2134 1574.75 59.6694C1428.18 36.5543 1345.79 -172.305 1208.66 -198.64C1096.63 -209.962 1053.27 -99.8072 832.136 124.398C686.565 265.038 606.436 179.641 497.435 18.486C419.086 -99.5564 303.981 -291.1 131.359 -233.942C0.975081 -183.643 -71.6139 -57.3034 -224.261 -25.1183C-389.673 7.68091 -420.664 4.06215 -579.88 -15.6389" stroke="#3DDEED" stroke-opacity="0.05" stroke-width="0.5" stroke-linecap="round" stroke-linejoin="round"/>
<path d="M1930.36 -15.6388C1807.36 -14.2875 1759.35 23.0672 1658.43 49.1049C1544.3 75.0965 1490.5 29.1888 1407.39 -53.5617C1343.45 -118.31 1288.65 -179.809 1219.13 -197.079C1111.68 -214.128 1054.66 -104.081 957.65 -3.31865C839.581 117.012 777.037 216.152 675.242 190.268C504.794 129.721 446.774 -210.72 225.488 -257.758C60.2921 -282.071 -36.8731 -75.9448 -213.804 -32.2073C-388.251 7.02071 -431.605 2.20934 -579.88 -15.6388" stroke="#3DDEED" stroke-opacity="0.05" stroke-width="0.5" stroke-linecap="round" stroke-linejoin="round"/>
<path d="M1930.36 -15.6389C1806.97 -15.1373 1759.38 21.3166 1658.43 45.8751C1544.11 70.2442 1490.3 23.1541 1407.39 -58.6905C1347.87 -118.264 1290.42 -182.517 1219.13 -198.077C1111.17 -211.912 1053.83 -98.4406 957.65 1.1958C839.983 120.185 776.601 216.397 675.242 185.907C503.678 116.925 447.009 -229.115 225.488 -272.382C57.9939 -293.992 -35.2931 -80.0141 -224.266 -34.9509C-384.813 1.35959 -417.188 2.77743 -579.88 -15.6389" stroke="#3DDEED" stroke-opacity="0.05" stroke-width="0.5" stroke-linecap="round" stroke-linejoin="round"/>
<path d="M1930.36 -15.6389C1764.55 -16.3145 1690.11 61.6093 1574.75 46.2129C1433.22 18.097 1352.46 -174.332 1219.14 -199.925C1145.83 -207.398 1096.77 -155.824 1051.79 -105.054C837.537 144.293 770.358 202.623 685.708 182.794C495.007 118.854 414.308 -352.727 152.282 -279.287C16.89 -233.103 -62.3542 -84.7179 -213.795 -43.248C-385.521 -0.0633103 -428.517 -0.0786817 -579.88 -15.6389" stroke="#3DDEED" stroke-opacity="0.05" stroke-width="0.5" stroke-linecap="round" stroke-linejoin="round"/>
<path d="M1930.36 -15.6389C1806.81 -17.1335 1758.18 17.7387 1658.43 38.6682C1535.37 60.8159 1484.49 5.02439 1376.01 -100.754C1330.48 -144.563 1276.68 -197.401 1208.66 -202.556C1103.21 -200.867 1049.88 -86.5913 947.184 14.5448C842.923 116.541 781.26 202.24 685.704 176.545C512.713 112.548 459.874 -230.979 246.411 -294.555C75.0819 -334.362 -30.1126 -107.521 -203.343 -52.0467C-389.845 1.45171 -457.66 -4.2298 -579.88 -15.6389" stroke="#3DDEED" stroke-opacity="0.05" stroke-width="0.5" stroke-linecap="round" stroke-linejoin="round"/>
<path d="M1930.36 -15.6389C1801.14 -18.234 1747.87 20.4515 1647.96 36.7744C1532.92 51.7203 1484.6 -1.90091 1376.01 -106.083C1153.75 -316.575 1119.66 -150.347 926.266 36.0834C832.6 127.807 765.412 211.612 664.781 160.77C494.241 57.5657 442.307 -279.195 225.488 -311.886C58.7504 -325.66 -34.867 -104.532 -224.266 -51.9443C-379.106 -10.7508 -417.141 -2.06468 -579.88 -15.6389" stroke="#3DDEED" stroke-opacity="0.05" stroke-width="0.5" stroke-linecap="round" stroke-linejoin="round"/>
<path d="M1930.36 -15.6389C1799.57 -19.314 1749.48 18.097 1647.96 32.9969C1529.83 46.3817 1477.89 -15.0605 1376.01 -111.411C1153.24 -319.068 1118.38 -144.794 926.266 37.1019C830.331 129.127 759.767 214.509 654.324 147.108C485.882 22.9033 431.285 -311.216 215.031 -325.758C111.91 -325.614 42.1365 -242.659 -67.3718 -147.849C-159.366 -70.207 -187.203 -67.8884 -287.016 -40.1974C-406.971 -7.62849 -460.835 -6.77881 -579.88 -15.6389" stroke="#3DDEED" stroke-opacity="0.05" stroke-width="0.5" stroke-linecap="round" stroke-linejoin="round"/>
<path d="M1930.36 -15.644C1800.79 -20.4042 1747.09 16.1878 1647.96 28.9994C1447.94 48.209 1366.35 -207.705 1208.66 -207.777C1102.08 -198.108 1048.97 -78.929 947.179 16.6894C834.683 120.876 768.582 204.41 664.776 145.87C488.898 29.2297 436.873 -325.215 215.022 -337.284C111.642 -335.744 41.3752 -250.941 -67.3814 -155.389C-159.16 -76.7485 -186.906 -74.133 -287.025 -45.0651C-407.249 -10.674 -461.208 -8.1762 -579.88 -15.6338" stroke="#3DDEED" stroke-opacity="0.05" stroke-width="0.5" stroke-linecap="round" stroke-linejoin="round"/>
<path d="M1930.36 -15.6542C1805.71 -21.3255 1756.9 9.71302 1658.43 23.5432C1534.36 37.2812 1485.88 -22.0728 1376.01 -123.004C1328.99 -165.421 1276.49 -211.805 1208.66 -210.561C1102.17 -198.978 1048.43 -79.2923 947.184 13.3881C836.56 113.004 768.812 196.466 664.781 136.651C489.535 18.7011 435.69 -336.987 215.027 -346.81C111.771 -344.271 41.4231 -258.833 -67.3766 -162.406C-146.918 -93.6599 -178.106 -82.8292 -245.189 -62.7238C-385.842 -20.2557 -430.073 -8.39106 -579.88 -15.6235" stroke="#3DDEED" stroke-opacity="0.05" stroke-width="0.5" stroke-linecap="round" stroke-linejoin="round"/>
<path d="M1930.36 -15.6695C1804.95 -22.518 1757.31 7.38924 1658.43 19.4279C1540.61 30.2791 1492.54 -22.1342 1386.48 -119.534C1339.88 -161.71 1286.81 -210.305 1219.14 -213.745C1109.89 -209.67 1052.5 -87.5279 957.655 0.745452C767.145 170.536 699.459 250.041 507.896 -68.4308C437.95 -187.052 367.123 -341.236 225.493 -355.977C58.894 -361.776 -33.1098 -136.133 -224.261 -74.6959C-374.596 -28.1279 -418.208 -10.1671 -579.88 -15.6132" stroke="#3DDEED" stroke-opacity="0.05" stroke-width="0.5" stroke-linecap="round" stroke-linejoin="round"/>
<path d="M1930.36 -15.6798C1804.68 -23.6647 1756.95 5.16776 1658.43 15.3279C1540.38 24.0191 1493.17 -28.9777 1386.48 -125.661C1339.4 -167.637 1286.73 -214.61 1219.14 -216.719C1109.87 -210.607 1052.35 -88.26 957.655 -2.29502C764.89 164.859 697.597 237.25 507.896 -78.4017C435.422 -201.394 365.988 -352.317 225.493 -365.6C59.0951 -369.771 -32.8513 -143.744 -224.261 -80.3928C-374.514 -32.2944 -419.712 -12.5422 -579.88 -15.6031" stroke="#3DDEED" stroke-opacity="0.05" stroke-width="0.5" stroke-linecap="round" stroke-linejoin="round"/>
<path d="M1930.36 -15.6901C1804.55 -24.8317 1756.08 2.97705 1658.43 11.2178C1455.14 22.3966 1376.57 -217.855 1219.13 -219.708C1106.85 -211.318 1051.19 -84.2061 947.184 3.47354C836.402 94.7566 768.486 172.01 664.781 109.001C486.183 -16.5807 434.422 -372.024 215.027 -375.391C112.274 -369.817 41.8684 -282.778 -67.3766 -183.453C-148.684 -111.314 -177.728 -101.471 -255.646 -75.7401C-387.978 -31.1479 -437.02 -14.9479 -579.88 -15.5979" stroke="#3DDEED" stroke-opacity="0.05" stroke-width="0.5" stroke-linecap="round" stroke-linejoin="round"/>
<path d="M1930.36 -15.7106C1803.95 -26.0652 1755.9 0.642987 1658.43 7.02062C1535.94 11.4737 1491.07 -47.5629 1376.01 -147.015C1153.35 -334.679 1110.77 -131.501 926.266 15.333C832.893 90.3905 765.197 160.652 664.781 99.5935C487.596 -24.888 439.19 -366.148 225.488 -382.829C59.4255 -384.236 -31.8506 -158.301 -224.266 -91.3924C-371.689 -41.5845 -421.986 -17.2922 -579.88 -15.598" stroke="#3DDEED" stroke-opacity="0.05" stroke-width="0.5" stroke-linecap="round" stroke-linejoin="round"/>
<path d="M1930.36 -15.7361C1802.92 -27.3345 1756 -1.82401 1658.43 2.72632C1456.75 6.2632 1377.47 -229.371 1219.13 -226.316C1107.04 -214.712 1051.16 -89.391 947.184 -7.89453C835.468 77.5227 773.164 145.409 675.242 96.195C491.225 -13.5044 437.759 -386.877 215.031 -387.993C112.389 -381.38 42.2131 -294.463 -67.3718 -194.561C-148.603 -122.277 -177.565 -112.148 -255.641 -85.4396C-387.733 -39.4858 -437.776 -19.4265 -579.88 -15.6183" stroke="#3DDEED" stroke-opacity="0.05" stroke-width="0.5" stroke-linecap="round" stroke-linejoin="round"/>
<path d="M1930.36 -15.7617C1801.75 -28.6551 1755.9 -4.26553 1658.43 -1.57321C1458.78 -1.7933 1377.11 -234.997 1219.13 -229.74C1109.76 -217.01 1053.04 -98.1846 957.65 -22.3491C773.887 115.84 701.719 197.224 518.353 -93.2248C420.829 -250.808 366.893 -373.953 235.95 -392.303C68.5033 -404.193 -30.8691 -173.457 -213.804 -104.665C-381.911 -44.8398 -435.947 -21.8066 -579.88 -15.6388" stroke="#3DDEED" stroke-opacity="0.05" stroke-width="0.5" stroke-linecap="round" stroke-linejoin="round"/>
<path d="M1930.36 -15.7873C1800.42 -30.0423 1756.75 -6.7327 1658.43 -5.87279C1459.81 -9.85497 1377.75 -240.637 1219.13 -233.169C1110.13 -219.104 1052.46 -100.984 957.65 -28.604C774.093 103.596 701.824 186.685 518.353 -100.078C418.21 -259.826 365.644 -379.722 235.95 -397.452C68.8671 -408.713 -30.6584 -179.077 -213.804 -109.486C-384.952 -47.9058 -438.485 -23.9922 -579.88 -15.6542" stroke="#3DDEED" stroke-opacity="0.05" stroke-width="0.5" stroke-linecap="round" stroke-linejoin="round"/>
<path d="M1930.36 -15.8129C1794.44 -31.9822 1745.14 -6.81459 1647.96 -10.5767C1454.13 -24.3556 1363.06 -269.608 1198.21 -232.77C1123.04 -209.916 1075.5 -146.385 1009.93 -79.666C971.415 -41.9581 963.678 -39.2197 915.799 -6.44093C815.943 63.6516 748.765 123.804 643.862 46.5865C468.861 -97.3503 409.132 -431.618 194.113 -400.943C91.4899 -379.404 21.3571 -285.762 -88.2901 -191.249C-166.05 -126.428 -195.711 -121.059 -266.097 -95.5793C-389.39 -50.3524 -446.323 -25.6915 -579.88 -15.6747" stroke="#3DDEED" stroke-opacity="0.05" stroke-width="0.5" stroke-linecap="round" stroke-linejoin="round"/>
<path d="M1930.36 -15.8385C1793.56 -33.3539 1744.61 -9.47106 1647.96 -14.9376C1532.8 -25.1643 1494.8 -82.5221 1376.01 -176.953C1158.11 -344.266 1110.68 -139.271 926.266 -21.4893C832.055 40.1629 765.254 106.289 664.781 52.1555C480.361 -63.2919 428.973 -407.075 215.031 -405.867C112.916 -398.281 42.5243 -312.403 -67.3718 -213.166C-146.156 -143.688 -177.158 -131.163 -245.184 -107.034C-376.999 -59.8779 -437.403 -28.3839 -579.88 -15.7002" stroke="#3DDEED" stroke-opacity="0.05" stroke-width="0.5" stroke-linecap="round" stroke-linejoin="round"/>
<path d="M1930.36 -15.8641C1754.09 -40.0131 1677.37 8.30023 1564.29 -40.5711C1434.54 -104.086 1343.33 -262.708 1208.66 -241.021C1136.08 -223.628 1084.36 -164.177 1030.87 -110.592C978.224 -58.9413 988.527 -70.1149 853.05 17.9281C796.648 53.2814 749.703 75.2858 685.699 53.7523C479.677 -33.1544 415.241 -479.696 162.733 -395.174C30.0614 -342.597 -57.3029 -185.486 -203.343 -125.282C-380.59 -57.631 -457.665 -28.4556 -579.88 -15.7311" stroke="#3DDEED" stroke-opacity="0.05" stroke-width="0.5" stroke-linecap="round" stroke-linejoin="round"/>
<path d="M1930.36 -15.8897C1788.37 -36.6349 1745.72 -14.5435 1647.96 -23.3626C1526.42 -38.2216 1485.45 -106.937 1365.56 -195.303C1158.51 -340.437 1100.11 -137.582 936.737 -44.6965C833.333 14.6472 768.472 85.2874 664.785 35.9094C479.308 -67.96 425.056 -405.713 215.031 -405.846C113.275 -398.972 42.4046 -314.482 -67.3718 -217.415C-148.258 -147.552 -177.416 -136.942 -255.641 -109.584C-381.002 -64.8377 -447.879 -31.5113 -579.88 -15.7668" stroke="#3DDEED" stroke-opacity="0.05" stroke-width="0.5" stroke-linecap="round" stroke-linejoin="round"/>
<path d="M1930.36 -15.9102C1794.77 -36.9318 1753.1 -18.9352 1658.43 -26.4542C1542.31 -38.8973 1508.96 -89.8262 1386.48 -185.061C1161.11 -354.401 1105 -144.829 947.184 -58.5318C783.965 28.6053 706.933 144.247 518.353 -119.191C408.821 -276.241 361.392 -387.358 235.95 -405.038C70.8015 -416.974 -30.3711 -196.28 -213.804 -127.329C-407.91 -58.1581 -456.971 -32.2944 -579.88 -15.8027" stroke="#3DDEED" stroke-opacity="0.05" stroke-width="0.5" stroke-linecap="round" stroke-linejoin="round"/>
<path d="M1930.36 -15.9358C1787.11 -39.2812 1743.37 -19.9538 1647.96 -31.7928C1531.86 -49.8662 1497.72 -108.57 1376.01 -198.251C1161.98 -349.425 1105.43 -145.423 936.732 -61.2139C772.489 22.2686 699.9 131.845 507.887 -136.297C411.114 -274.552 354.766 -396.024 225.493 -405.749C62.619 -406.87 -31.2186 -194.898 -224.261 -126.654C-392.382 -68.866 -449.593 -35.2785 -579.88 -15.8334" stroke="#3DDEED" stroke-opacity="0.05" stroke-width="0.5" stroke-linecap="round" stroke-linejoin="round"/>
<path d="M1930.36 -15.9511C1786.82 -40.6171 1742.73 -22.4311 1647.96 -35.6112C1526.02 -56.3923 1486.01 -126.848 1365.56 -210.018C1162.02 -342.812 1102.34 -146.048 936.737 -69.0963C833.075 -19.7695 769.348 52.3448 664.785 13.0553C477.661 -71.9985 419.148 -400.631 215.031 -403.287C113.682 -397.775 42.577 -315.94 -67.3718 -222.185C-148.158 -154.892 -177.67 -144.333 -255.641 -118.044C-391.765 -71.2051 -455.611 -36.1947 -579.88 -15.859" stroke="#3DDEED" stroke-opacity="0.05" stroke-width="0.5" stroke-linecap="round" stroke-linejoin="round"/>
<path d="M1930.36 -15.9563C1785.16 -42.122 1742.85 -24.6168 1647.96 -39.0458C1531.02 -60.4973 1495.8 -121.975 1376.01 -206.599C1164.97 -348.934 1101.43 -148.74 947.184 -81.1095C789.677 -13.3612 708.154 120.666 518.353 -119.406C402.707 -270.427 359.817 -377.495 235.95 -397.053C71.7542 -411.825 -29.6099 -198.901 -213.804 -133.042C-436.733 -57.7538 -464.248 -36.3227 -579.88 -15.8795" stroke="#3DDEED" stroke-opacity="0.05" stroke-width="0.5" stroke-linecap="round" stroke-linejoin="round"/>
<path d="M1930.36 -15.9613C1789.47 -42.5314 1739.47 -27.3602 1647.96 -42.4802C1464.73 -78.4478 1370.43 -299.029 1198.21 -251.683C1123.4 -226.183 1081.96 -174.716 1009.93 -121.812C974.374 -97.3913 967.355 -96.7566 926.266 -79.8144C828.631 -36.3994 761.414 37.8595 654.324 -0.923238C465.275 -83.6072 409.558 -400.109 204.57 -392.784C103.349 -382.501 32.2495 -299.848 -77.8334 -211.636C-156.642 -150.265 -182.535 -144.046 -266.102 -117.072C-399.334 -73.2167 -462.951 -38.1448 -579.88 -15.8948" stroke="#3DDEED" stroke-opacity="0.05" stroke-width="0.5" stroke-linecap="round" stroke-linejoin="round"/>
<path d="M1930.36 -15.9716C1786.16 -44.3638 1740.81 -29.3513 1647.96 -45.9198C1464.91 -84.2112 1371.95 -301.639 1198.21 -253.08C1123.17 -227.324 1081.01 -176.108 1009.93 -126.567C974.063 -103.324 967.427 -103.324 926.266 -87.6713C774.476 -24.5451 695.246 106.78 497.43 -140.428C404.775 -259.335 344.567 -382.895 215.027 -388.096C114.055 -385.439 42.6488 -307.444 -67.3766 -218.94C-147.511 -156.008 -177.459 -145.633 -255.646 -121.658C-398.171 -77.1733 -461.524 -40.0131 -579.88 -15.9153" stroke="#3DDEED" stroke-opacity="0.05" stroke-width="0.5" stroke-linecap="round" stroke-linejoin="round"/>
<path d="M1930.36 -15.9767C1787.86 -45.2186 1738.76 -31.9566 1647.96 -49.3492C1530.13 -75.5149 1495.54 -139.061 1376.01 -217.978C1169.02 -347.619 1110.53 -156.167 936.732 -99.1674C788.61 -47.5424 702.715 101.974 507.887 -124.504C397.531 -257.329 350.117 -368.041 225.483 -382.516C64.333 -390.45 -31.391 -191.792 -224.271 -132.161C-413.507 -76.0524 -457.689 -42.4597 -579.88 -15.9358" stroke="#3DDEED" stroke-opacity="0.05" stroke-width="0.5" stroke-linecap="round" stroke-linejoin="round"/>
<path d="M1930.36 -15.6388C1741.17 -64.2081 1667.56 -37.116 1553.83 -105.581C1430.39 -185.224 1344.92 -280.142 1198.22 -232.023C1122.69 -204.091 1086.31 -167.98 1020.4 -143.493C941.759 -118.843 941.333 -154.078 853.054 -107.321C733.453 -39.2811 643.226 62.6996 497.435 -38.5747C372.443 -132.852 318.277 -293.199 152.277 -268.43C23.8037 -242.756 -62.833 -133.61 -213.799 -110.249C-277.382 -101.824 -317.395 -102.801 -402.068 -77.4087C-475.912 -54.1298 -491.123 -43.1046 -579.88 -15.6337" stroke="#3DDEED" stroke-opacity="0.05" stroke-width="0.5" stroke-linecap="round" stroke-linejoin="round"/>
<path d="M1930.36 -15.6388C1784.78 -52.4407 1728.62 -43.3708 1637.51 -67.6477C1480.77 -114.098 1388.13 -289.089 1198.21 -226.177C1123.94 -198.573 1084.58 -161.956 1020.4 -139.378C983.49 -128.573 973.867 -131.189 936.732 -131.327C794.288 -124.386 691.253 88.4967 507.887 -20.8136C389.889 -98.5685 364.231 -200.718 246.402 -248.125C146.091 -282 65.8269 -230.303 -36.0017 -172.705C-240.659 -59.0743 -229.259 -140.197 -464.837 -55.4094C-530.996 -31.1069 -535.387 -29.2284 -579.89 -15.6388" stroke="#3DDEED" stroke-opacity="0.05" stroke-width="0.5" stroke-linecap="round" stroke-linejoin="round"/>
<path d="M1930.36 -15.6388C1789.18 -50.7721 1737.19 -43.2479 1647.96 -64.1109C1528.97 -95.2006 1495.05 -160.605 1376.01 -213.504C1178.51 -293.777 1113.24 -121.192 947.184 -128.762C792.516 -132.304 694.801 94.1936 507.892 -10.3105C389.823 -83.8529 364.619 -186.576 246.407 -235.442C147.178 -270.058 66.1573 -220.522 -25.5353 -170.519C-244.245 -52.1746 -229.47 -136.128 -454.371 -58.6955C-512.175 -38.3188 -522.321 -33.0673 -579.885 -15.6388" stroke="#3DDEED" stroke-opacity="0.05" stroke-width="0.5" stroke-linecap="round" stroke-linejoin="round"/>
<path d="M1930.36 -15.6389C1783.79 -51.5399 1739.47 -42.4035 1647.96 -63.3585C1482.96 -105.642 1398.72 -274.435 1208.66 -218.019C1130.71 -191.669 1086.54 -151.791 1020.4 -131.143C983.692 -121.934 974.571 -125.082 936.732 -126.679C791.727 -124.704 684.904 104.098 497.43 -5.9496C383.005 -80.3672 355.924 -183.315 235.945 -226.52C138.435 -255.455 63.5144 -208.708 -35.9968 -157.011C-244.614 -50.1784 -237.217 -133.17 -464.833 -54.6059C-525.61 -33.1902 -528.459 -31.0711 -579.885 -15.644" stroke="#3DDEED" stroke-opacity="0.05" stroke-width="0.5" stroke-linecap="round" stroke-linejoin="round"/>
<path d="M1930.36 -15.6389C1784.6 -50.7722 1737.73 -42.47 1647.96 -62.6061C1483.18 -103.979 1400.49 -270.079 1208.66 -212.209C1129.16 -185.076 1087.32 -146.585 1020.4 -127.027C983.61 -118.556 974.542 -122.037 936.732 -124.355C793.656 -124.939 688.677 98.4009 507.887 10.6906C390.397 -54.0582 364.691 -158.634 246.402 -210.07C148.092 -246.57 67.7421 -201.276 -25.5401 -154.375C-248.526 -43.3299 -236.154 -129.274 -454.376 -57.7384C-511.055 -38.5902 -521.382 -33.0315 -579.89 -15.644" stroke="#3DDEED" stroke-opacity="0.05" stroke-width="0.5" stroke-linecap="round" stroke-linejoin="round"/>
<path d="M1930.36 -15.6388C1774.18 -52.0824 1728.98 -41.3797 1637.51 -63.5273C1525.06 -93.9823 1493.63 -154.416 1376.01 -200.677C1178.99 -270.734 1114.25 -102.136 947.184 -119.355C794.451 -131.096 692.062 103.949 507.891 20.0524C393.715 -39.537 369.311 -136.814 256.868 -193.639C99.682 -263.046 -9.67794 -119.145 -182.425 -91.4999C-270.675 -80.2648 -312.976 -100.099 -443.91 -60.2208C-504.515 -40.9702 -514.904 -34.5925 -579.88 -15.6388" stroke="#3DDEED" stroke-opacity="0.05" stroke-width="0.5" stroke-linecap="round" stroke-linejoin="round"/>
<path d="M1930.36 -15.6388C1772.39 -51.3863 1729.76 -39.9721 1637.51 -61.224C1524.36 -90.5018 1494.5 -149.636 1376.01 -194.233C1178.79 -261.116 1114.29 -94.315 947.184 -113.791C793.163 -127.616 692.182 108.024 507.891 28.6361C393.533 -28.2201 369.369 -125.139 256.868 -182.379C99.883 -252.364 -9.63484 -111.247 -182.425 -86.3302C-272.451 -76.2519 -313.11 -97.3145 -443.91 -59.0385C-502.394 -41.1238 -515.78 -33.8658 -579.88 -15.6491" stroke="#3DDEED" stroke-opacity="0.05" stroke-width="0.5" stroke-linecap="round" stroke-linejoin="round"/>
<path d="M1930.36 -15.6389C1774.17 -49.8866 1728.28 -39.061 1637.51 -58.9208C1485.77 -96.3522 1400.16 -247.818 1208.66 -188.7C1084.86 -146.017 1062.53 -93.2351 947.184 -108.217C794.297 -123.931 691.109 111.591 507.891 37.2351C393.586 -16.7598 369.354 -113.468 256.868 -171.108C100.055 -241.656 -9.39545 -103.359 -182.425 -81.1452C-273.303 -72.3824 -313.703 -94.3919 -443.91 -57.8408C-502.236 -40.6375 -515.517 -33.4461 -579.88 -15.6389" stroke="#3DDEED" stroke-opacity="0.05" stroke-width="0.5" stroke-linecap="round" stroke-linejoin="round"/>
<path d="M1930.36 -15.6388C1776.45 -48.2845 1739.73 -37.7763 1647.96 -54.4523C1488.07 -87.5484 1407.81 -235.677 1219.13 -183.802C1141.24 -159.596 1096.57 -123.286 1030.87 -104.025C995.829 -95.8046 982.533 -97.5807 947.184 -102.643C789.644 -120.839 686.254 125.693 497.435 41.1456C381.956 -18.2083 357.16 -121.131 235.95 -168.697C140.786 -200.278 69.3842 -162.99 -35.9921 -118.224C-250.556 -28.7268 -248.737 -114.538 -464.828 -50.5827C-517.174 -34.567 -527.075 -29.8478 -579.88 -15.6338" stroke="#3DDEED" stroke-opacity="0.05" stroke-width="0.5" stroke-linecap="round" stroke-linejoin="round"/>
<path d="M1930.36 -15.6388C1717.39 -59.3148 1659.45 -26.6691 1543.36 -89.6162C1418.42 -161.357 1339.94 -217.891 1198.22 -168.784C1118.55 -138.836 1074.73 -103.487 1009.93 -93.3169C938.743 -86.9802 928.971 -120.47 842.588 -74.5167C722.202 -4.78761 628.421 114.115 486.978 44.8719C359.214 -26.147 317.789 -183.208 141.82 -168.641C13.5911 -152.558 -69.7706 -67.4174 -224.256 -69.818C-289.333 -72.0189 -327.038 -78.4938 -402.068 -65.0629C-470.501 -51.33 -500.612 -36.3891 -579.88 -15.6388" stroke="#3DDEED" stroke-opacity="0.05" stroke-width="0.5" stroke-linecap="round" stroke-linejoin="round"/>
<path d="M1930.36 -15.6388C1716.51 -57.4261 1658.85 -24.5194 1543.36 -84.9431C1418.33 -154.319 1340.33 -208.488 1198.22 -159.56C1117.8 -129.597 1074.68 -95.3694 1009.93 -85.9617C939.255 -80.4849 928.64 -113.74 842.588 -69.0297C722.953 -1.18422 628.23 117.984 486.978 51.4901C358.275 -17.5839 318.435 -172.92 141.82 -159.432C13.7108 -144.287 -70.0531 -61.0654 -224.256 -65.4212C-288.94 -68.4206 -327.114 -75.4892 -402.068 -63.082C-469.721 -50.4087 -501.522 -35.4064 -579.88 -15.6439" stroke="#3DDEED" stroke-opacity="0.05" stroke-width="0.5" stroke-linecap="round" stroke-linejoin="round"/>
<path d="M1930.36 -15.6389C1764.23 -46.5647 1720.1 -32.2535 1627.04 -49.8047C1485.34 -80.792 1397.26 -217.44 1198.22 -149.687C1122.37 -121.801 1081.78 -91.6279 1020.4 -79.4766C983.711 -74.5168 974.609 -78.9955 936.737 -84.5081C789.783 -97.3043 679.695 132.495 497.435 61.4045C381.678 8.69439 357.413 -91.848 235.95 -139.491C137.276 -172.418 63.2319 -133.42 -46.4536 -92.8103C-251.202 -19.2474 -257.417 -103.38 -475.289 -44.2666C-526.213 -30.0065 -531.384 -27.35 -579.885 -15.6338" stroke="#3DDEED" stroke-opacity="0.05" stroke-width="0.5" stroke-linecap="round" stroke-linejoin="round"/>
<path d="M1930.36 -15.6389C1764.14 -45.0343 1720.01 -30.2829 1627.04 -46.1604C1485.35 -74.5014 1398.53 -207.249 1198.22 -139.824C1122.54 -112.394 1081.63 -82.9469 1020.4 -71.4764C983.62 -66.8851 974.274 -71.456 936.737 -77.2142C789.634 -91.2696 679.312 134.691 497.435 66.3694C381.386 15.3075 357.567 -83.7966 235.95 -130.989C136.956 -163.717 61.9535 -124.903 -46.4536 -86.2432C-254.99 -14.1647 -254.554 -102.116 -485.746 -40.2793C-536.186 -26.4645 -538.992 -25.0876 -579.88 -15.644" stroke="#3DDEED" stroke-opacity="0.05" stroke-width="0.5" stroke-linecap="round" stroke-linejoin="round"/>
<path d="M1930.36 -15.6388C1764.65 -43.4117 1733.46 -28.7011 1637.51 -40.9138C1486.87 -63.8958 1407.24 -193.834 1208.66 -133.43C1079.17 -90.3686 1058.94 -47.2761 947.184 -68.2261C793.244 -93.0098 689.161 129.061 507.892 75.1273C389.578 32.3879 364.854 -66.1889 246.407 -118.454C146.953 -156.622 70.7584 -120.783 -35.9968 -83.2488C-254.779 -8.21186 -252.442 -96.6848 -475.289 -41.8761C-527.784 -28.4862 -531.542 -26.2903 -579.885 -15.6439" stroke="#3DDEED" stroke-opacity="0.05" stroke-width="0.5" stroke-linecap="round" stroke-linejoin="round"/>
<path d="M1930.36 -15.6389C1714.21 -49.8662 1658.88 -13.1002 1543.36 -63.5838C1414.57 -123.828 1340.57 -166.885 1198.22 -120.082C1115.05 -90.7578 1074.33 -61.1013 1009.93 -54.3756C939.418 -51.6117 928.301 -83.812 842.588 -44.6044C719.779 17.278 621.781 135.699 476.516 67.1167C354.124 1.70248 310.904 -142.265 131.359 -124.448C5.9066 -107.516 -75.291 -37.413 -224.261 -48.1106C-291.847 -54.2016 -332.199 -63.8806 -412.53 -53.0653C-476.529 -43.1201 -506.521 -31.0098 -579.88 -15.6338" stroke="#3DDEED" stroke-opacity="0.05" stroke-width="0.5" stroke-linecap="round" stroke-linejoin="round"/>
<path d="M1930.36 -15.6389C1714.17 -47.7778 1658.92 -9.95737 1543.36 -57.5644C1413.3 -115.142 1340.19 -155.297 1198.22 -109.645C1117.07 -81.7441 1073.65 -52.3845 1009.93 -46.3242C939.25 -44.1284 928.43 -75.7913 842.588 -38.3701C719.434 20.9224 621.604 135.925 476.516 69.3126C353.344 5.25988 311.229 -135.217 131.359 -117.538C5.95447 -100.831 -75.516 -32.4429 -224.261 -44.241C-291.411 -50.7977 -331.864 -60.8351 -412.53 -50.9615C-477.535 -41.6664 -504.28 -30.6258 -579.88 -15.6338" stroke="#3DDEED" stroke-opacity="0.05" stroke-width="0.5" stroke-linecap="round" stroke-linejoin="round"/>
<path d="M1930.36 -15.6388C1753.5 -40.1871 1729.26 -21.177 1627.04 -30.5131C1486.46 -47.184 1403.57 -163.031 1198.22 -98.9012C1116.75 -71.7323 1073.49 -43.6676 1009.93 -38.1909C971.133 -37.2695 964.569 -43.6267 926.27 -48.433C783.529 -56.3717 667.845 144.831 486.978 74.5232C373.419 23.6506 348.747 -67.7757 225.493 -105.182C131.914 -128.696 64.5053 -96.7208 -46.4489 -62.4013C-253.773 -0.687761 -256.522 -85.24 -485.741 -35.7545C-536.464 -24.4631 -537.532 -23.5264 -579.876 -15.6337" stroke="#3DDEED" stroke-opacity="0.05" stroke-width="0.5" stroke-linecap="round" stroke-linejoin="round"/>
<path d="M1930.36 -15.6389C1758.25 -37.8224 1728.43 -19.2065 1627.04 -26.229C1487.46 -39.5678 1404.64 -150.711 1198.22 -88.1576C1116.74 -61.8281 1073.34 -34.9509 1009.93 -30.0525C971.238 -29.423 964.64 -35.6214 926.27 -40.658C783.371 -49.8355 667.62 143.485 486.978 74.9327C373.477 25.3448 348.469 -63.7731 225.493 -99.6281C130.612 -122.472 60.6703 -89.4321 -46.4489 -57.3289C-252.648 2.11202 -257.192 -80.833 -485.741 -34.5415C-536.77 -23.8797 -537.259 -23.0811 -579.876 -15.6389" stroke="#3DDEED" stroke-opacity="0.05" stroke-width="0.5" stroke-linecap="round" stroke-linejoin="round"/>
<path d="M1930.36 -15.6389C1712.27 -41.5845 1659.3 0.0646344 1543.36 -38.4008C1412.01 -85.8952 1341.54 -119.539 1198.22 -77.4087C1117.3 -52.0978 1072.95 -26.2085 1009.93 -21.9141C939.269 -21.2846 928.597 -50.5777 842.588 -19.4419C723.025 28.8356 626.952 127.187 486.978 75.3422C354.033 18.7625 320.614 -112.419 141.82 -100.309C13.2368 -87.2055 -71.2022 -18.6127 -224.256 -33.3693C-291.152 -41.001 -331.806 -51.5962 -412.525 -44.4969C-476.491 -37.6381 -505.094 -27.8004 -579.876 -15.6338" stroke="#3DDEED" stroke-opacity="0.05" stroke-width="0.5" stroke-linecap="round" stroke-linejoin="round"/>
<path d="M1930.36 -15.6388C1709.86 -39.6957 1660.86 3.82164 1543.36 -32.0129C1410.88 -76.3338 1341.83 -107.572 1198.22 -66.665C1115.3 -41.61 1072.99 -17.5224 1009.93 -13.7808C939.389 -13.6835 928.578 -42.1679 842.588 -13.1359C723.044 32.0398 626.822 126.251 486.978 75.7466C356.211 21.547 319.905 -106.707 141.82 -94.228C12.9399 -80.9507 -71.2453 -14.1084 -224.256 -29.7505C-291.224 -37.7609 -331.744 -48.5149 -412.525 -42.3471C-476.108 -36.2868 -505.089 -26.9302 -579.876 -15.6388" stroke="#3DDEED" stroke-opacity="0.05" stroke-width="0.5" stroke-linecap="round" stroke-linejoin="round"/>
<path d="M1930.36 -15.6389C1718.28 -36.8346 1664.13 3.81132 1553.83 -22.6768C1455.26 -49.9276 1367.98 -99.2954 1208.66 -58.8185C1122.97 -35.4168 1076 -9.38926 1009.93 -6.05713C939.49 -6.43078 928.731 -33.8249 842.588 -7.32138C723.226 34.0206 626.798 122.734 486.978 73.2435C355.824 20.1597 319.623 -103.027 141.82 -89.7034C12.8011 -75.95 -71.3458 -10.9095 -224.256 -26.8279C-290.899 -34.9151 -331.677 -45.6691 -412.525 -40.2691C-475.773 -34.8946 -504.859 -26.1114 -579.876 -15.6338" stroke="#3DDEED" stroke-opacity="0.05" stroke-width="0.5" stroke-linecap="round" stroke-linejoin="round"/>
<path d="M1930.36 -15.6389C1709.51 -35.775 1661.34 10.0457 1543.36 -19.099C1413.52 -54.9591 1345.04 -83.4946 1198.22 -45.2903C1116.07 -22.6973 1072.45 -1.11776 1009.93 1.46708C939.734 0.627645 928.827 -25.5073 842.588 -1.74222C723.063 35.5664 626.75 117.938 486.978 69.3433C355.383 17.2781 319.297 -100.288 141.82 -85.931C12.3175 -71.4764 -71.432 -8.28874 -224.256 -24.2482C-291.622 -32.4224 -331.72 -42.9102 -412.525 -38.237C-476.132 -33.4512 -503.318 -25.4766 -579.876 -15.6389" stroke="#3DDEED" stroke-opacity="0.05" stroke-width="0.5" stroke-linecap="round" stroke-linejoin="round"/>
<path d="M1930.36 -15.6389C1781.4 -28.0871 1757.27 -14.907 1647.96 -6.19021C1529.32 1.44145 1518.33 -30.6463 1386.48 -48.387C1181 -71.9167 1103.36 33.1556 947.179 0.740238C791.497 -29.3104 686.594 117.068 507.887 72.1072C386.576 36.1397 362.067 -38.6363 246.402 -74.1176C151.449 -98.9064 80.5066 -71.7324 -25.5401 -42.2346C-244.03 16.8123 -248.588 -57.114 -464.833 -31.2861C-515.172 -24.801 -524.279 -22.1701 -579.885 -15.6389" stroke="#3DDEED" stroke-opacity="0.05" stroke-width="0.5" stroke-linecap="round" stroke-linejoin="round"/>
<path d="M1930.36 -15.6389C1716.31 -31.6444 1665.96 12.9786 1553.83 -4.18369C1454.6 -22.8815 1368.77 -63.8959 1198.22 -23.9359C1114.69 -3.33915 1072.01 15.0669 1009.93 16.5154C940.27 14.7649 929.133 -8.87224 842.588 9.4161C723.03 38.5147 626.712 108.387 486.978 61.5325C353.832 11.2946 318.517 -94.8372 141.82 -78.3864C12.1786 -62.6726 -71.7241 -3.06277 -224.256 -19.0836C-431.519 -44.1642 -376.185 -37.2798 -579.876 -15.6338" stroke="#3DDEED" stroke-opacity="0.05" stroke-width="0.5" stroke-linecap="round" stroke-linejoin="round"/>
<path d="M1930.36 -15.6388C1776.42 -25.8143 1744.49 -9.37377 1637.51 2.37826C1487.68 16.2698 1424.49 -63.3994 1198.21 -13.2587C1114.92 6.08917 1071.66 23.1542 1009.93 24.0346C972.612 22.8573 965.301 18.2251 926.266 11.7963C780.863 -5.96997 666.37 116.623 486.973 57.6272C370.7 14.8162 345.472 -51.7855 225.488 -73.4162C126.212 -87.3129 54.2067 -53.7868 -56.9151 -27.6058C-254.401 16.234 -231.495 -56.1311 -538.044 -19.9383C-553.538 -18.2083 -556.607 -17.8551 -579.88 -15.6388" stroke="#3DDEED" stroke-opacity="0.05" stroke-width="0.5" stroke-linecap="round" stroke-linejoin="round"/>
<path d="M1930.36 -15.6388C1722.68 -27.8669 1673.67 14.898 1564.29 8.49481C1476.83 0.0953772 1385.44 -40.2076 1208.66 -5.42747C1120.52 12.9428 1074.83 30.5145 1009.93 30.8882C941.089 28.3085 929.584 7.35851 842.588 19.8834C722.632 40.4188 626.75 96.8142 486.978 51.659C352.439 3.38657 317.214 -90.6758 141.82 -72.1469C12.2935 -55.1689 -72.4854 0.730079 -224.256 -14.784C-429.647 -38.8972 -373.619 -33.2567 -579.876 -15.6337" stroke="#3DDEED" stroke-opacity="0.05" stroke-width="0.5" stroke-linecap="round" stroke-linejoin="round"/>
<path d="M1930.36 -15.6389C1778.73 -23.5879 1752.91 -8.56519 1637.51 8.90931C1488.47 29.2399 1433.35 -39.4962 1198.21 6.47803C1109.44 24.5565 1063.6 39.7738 999.482 37.0047C962.51 33.8312 953.849 28.9123 915.799 23.6915C770.952 9.41604 656.22 103.99 476.512 41.1404C364.222 -1.72689 334.767 -59.6425 215.027 -72.1265C115.113 -79.0006 42.9313 -45.3108 -67.3766 -21.9449C-248.602 13.7361 -236.633 -47.3275 -538.049 -19.0734C-553.7 -17.6863 -556.966 -17.3894 -579.885 -15.644" stroke="#3DDEED" stroke-opacity="0.05" stroke-width="0.5" stroke-linecap="round" stroke-linejoin="round"/>
<path d="M1930.36 -15.6389C1781.04 -22.5079 1754.49 -8.06353 1637.51 12.0572C1527.84 29.3731 1519.56 5.63354 1376.01 0.735148C1202.53 -2.93992 1110.56 48.941 999.482 43.5205C963.616 40.3522 953.226 35.5767 915.799 30.1664C820.818 19.6275 753.423 48.5213 643.862 56.542C419.632 68.6676 381.051 -56.7096 215.027 -71.026C53.0242 -79.5329 -36.1836 10.0815 -245.184 -14.4258C-410.552 -35.2017 -415.675 -26.8433 -579.885 -15.6338" stroke="#3DDEED" stroke-opacity="0.05" stroke-width="0.5" stroke-linecap="round" stroke-linejoin="round"/>
<path d="M1930.36 -15.6389C1795.17 -20.9775 1769.29 -11.2677 1647.96 13.1884C1497 42.2562 1447.83 -12.8493 1219.13 22.4631C1058.28 48.5674 1048.28 61.558 936.732 40.0604C830.211 21.2551 760.165 48.0862 643.862 52.2271C424.592 56.2809 377.977 -53.8177 225.488 -69.2345C65.2571 -80.1625 -35.068 8.50499 -234.722 -11.8051C-415.053 -31.931 -390.826 -26.7716 -579.88 -15.644" stroke="#3DDEED" stroke-opacity="0.05" stroke-width="0.5" stroke-linecap="round" stroke-linejoin="round"/>
<path d="M1930.36 -15.6389C1787.51 -20.3632 1765.83 -8.97974 1637.51 18.3478C1495.28 46.9295 1451.76 -4.00456 1198.21 35.6637C965.933 72.9928 1006.29 52.8515 894.881 40.516C792.033 31.6405 717.184 53.9623 602.021 46.1822C388.233 27.7812 363.106 -75.0901 183.647 -68.5896C78.7733 -62.0635 3.24932 -26.1727 -109.213 -11.0476C-189.381 -1.72172 -226.171 -10.07 -307.939 -18.5052C-408.92 -28.128 -451.106 -22.1342 -579.88 -15.644" stroke="#3DDEED" stroke-opacity="0.05" stroke-width="0.5" stroke-linecap="round" stroke-linejoin="round"/>
<path d="M1930.36 -15.6389C1799.87 -19.3702 1771.84 -11.1858 1647.96 18.138C1496.93 52.8311 1467.67 5.869 1208.66 42.7067C971.794 77.4254 1010.32 60.908 894.881 46.2077C790.716 34.9624 716.887 50.9014 602.021 39.8096C380.903 14.9543 358.414 -80.229 173.185 -67.0796C69.37 -57.3136 -8.92618 -22.4413 -119.675 -9.73214C-198.047 -2.1875 -232.017 -10.6074 -318.4 -18.2595C-411.165 -25.7325 -456.396 -20.9672 -579.885 -15.6338" stroke="#3DDEED" stroke-opacity="0.05" stroke-width="0.5" stroke-linecap="round" stroke-linejoin="round"/>
<path d="M1930.36 -15.6389C1793 -19.0427 1769.65 -10.0086 1637.51 22.3607C1486 57.9598 1517.91 7.84984 1145.91 59.6694C995.905 79.7134 982.681 64.3323 894.881 51.7203C788.806 37.9875 716.169 47.5385 602.021 33.1556C376.847 1.80488 354.694 -80.8586 173.185 -66.5166C71.8357 -56.3462 -1.54804 -25.2719 -109.218 -11.2473C-188.199 -2.26943 -224.4 -9.14868 -307.943 -16.4016C-401.748 -23.9718 -444.273 -20.6038 -579.885 -15.6287" stroke="#3DDEED" stroke-opacity="0.05" stroke-width="0.5" stroke-linecap="round" stroke-linejoin="round"/>
<path d="M1930.36 -15.6389C1794.27 -18.5001 1767.21 -9.56324 1637.51 24.1829C1527.94 51.7101 1530.87 33.7954 1355.09 44.3139C1259.67 50.6353 1205.35 60.4576 1125 69.6043C988.111 84.2483 975.662 67.5723 863.516 52.8055C748.961 38.7757 670.526 42.1334 549.728 16.6639C346.392 -28.5989 320.48 -92.9792 120.892 -58.5983C13.2321 -38.6516 -60.1708 -9.93177 -171.968 -7.23433C-314.709 -6.43072 -219.679 -25.7377 -579.885 -15.6338" stroke="#3DDEED" stroke-opacity="0.05" stroke-width="0.5" stroke-linecap="round" stroke-linejoin="round"/>
<path d="M1930.36 -15.6389C1804.16 -17.8143 1769.6 -10.8634 1647.96 23.1285C1533.24 54.7198 1546.65 38.8371 1365.56 51.3672C1257.95 59.3417 1197.12 70.1929 1114.53 77.7478C987.575 88.3277 971.19 73.7196 842.583 54.2796C721.9 36.5901 637.638 32.2547 507.892 -1.4044C321.437 -51.2482 291.638 -95.9684 68.5991 -47.2558C-240.147 21.7107 -176.631 -19.5341 -433.453 -18.2852C-459.365 -18.0395 -450.196 -18.1572 -579.885 -15.6389" stroke="#3DDEED" stroke-opacity="0.05" stroke-width="0.5" stroke-linecap="round" stroke-linejoin="round"/>
<path d="M1930.36 -15.6389C1798.06 -17.4201 1765.54 -9.56836 1637.51 27.8273C1531.66 57.8677 1541.72 42.9012 1344.64 60.9285C1183.27 76.1969 1094.93 94.5774 989.016 84.2586C971.238 82.1446 652.687 27.0288 528.81 -4.00457C354.316 -48.5917 320.475 -73.0631 204.57 -67.5249C99.0356 -60.441 23.5739 -31.8031 -88.2901 -14.953C-231.041 4.71732 -189.022 -20.9314 -579.88 -15.644" stroke="#3DDEED" stroke-opacity="0.05" stroke-width="0.5" stroke-linecap="round" stroke-linejoin="round"/>
<path d="M1930.36 -15.6388C1706.97 -17.9626 1677.3 29.4141 1553.83 48.2706C1515.62 53.0512 1501.7 52.2681 1407.39 60.6061C1006.16 98.3191 1100.02 126.635 602.026 7.08724C339.339 -57.3596 297.345 -90.1179 99.9788 -52.9833C-272.82 19.8323 -27.9293 -20.916 -579.88 -15.6388" stroke="#3DDEED" stroke-opacity="0.05" stroke-width="0.5" stroke-linecap="round" stroke-linejoin="round"/>
<path d="M1930.36 -15.6388C1796.57 -16.8622 1763.13 -9.96248 1637.51 28.7691C1548.91 55.6616 1554.3 48.9974 1407.39 64.7828C1181.72 90.0629 1076.67 113.762 926.266 85.5126C796.318 59.5619 550.81 -19.5852 361.459 -57.4978C149.538 -97.294 26.7722 -15.7463 -182.429 -9.97781C-271.733 -8.73402 -271.642 -17.2614 -579.885 -15.644" stroke="#3DDEED" stroke-opacity="0.05" stroke-width="0.5" stroke-linecap="round" stroke-linejoin="round"/>
<path d="M1930.36 -15.6388C1695.01 -17.4968 1676.34 31.3796 1543.36 52.6264C856.147 148.066 1003.08 100.336 518.353 -28.1484C139.029 -126.613 71.7351 -10.9093 -213.804 -11.0014C-276.501 -11.5696 -350.062 -15.8794 -579.88 -15.6439" stroke="#3DDEED" stroke-opacity="0.05" stroke-width="0.5" stroke-linecap="round" stroke-linejoin="round"/>
<path d="M1930.36 -15.6388C1696.41 -17.2051 1688.56 25.0736 1553.83 52.2988C1553.63 52.3346 1263.83 95.4169 1187.75 103.125C947.265 125.959 870.592 84.4275 685.699 17.8309C302.496 -117.44 203.555 -66.0201 -56.9151 -25.108C-202.04 -3.3084 -248.971 -15.1167 -579.88 -15.6388" stroke="#3DDEED" stroke-opacity="0.05" stroke-width="0.5" stroke-linecap="round" stroke-linejoin="round"/>
<path d="M1930.36 -15.6389C1692.29 -16.7394 1675.94 29.9054 1543.36 55.6769C1089.85 135.1 984.63 136.482 779.838 53.3378C601.274 -20.1073 491.57 -67.5761 298.709 -70.4783C178.835 -70.9083 94.9276 -51.197 -25.5306 -31.3322C-213.134 -1.18942 -347.051 -14.3235 -579.88 -15.6338" stroke="#3DDEED" stroke-opacity="0.05" stroke-width="0.5" stroke-linecap="round" stroke-linejoin="round"/>
<path d="M1930.36 -15.6388C1691.59 -16.8365 1678.05 27.7864 1543.36 55.4876C920.817 171.938 932.998 116.413 654.324 -0.196359C347.78 -126.091 139.393 -51.1458 -98.7515 -22.9583C-256.445 -5.38139 -544.01 -15.3573 -579.885 -15.6439" stroke="#3DDEED" stroke-opacity="0.05" stroke-width="0.5" stroke-linecap="round" stroke-linejoin="round"/>
<path d="M1930.36 -15.6389C1681.24 -17.0823 1678.7 28.0883 1532.91 56.8695C1232.12 112.559 1028.65 176.504 790.3 62.7251C576.516 -40.5147 517.596 -73.4163 319.618 -70.7752C53.7854 -65.6516 36.5107 -16.463 -402.078 -12.3375C-502.494 -11.8359 -509.298 -14.9325 -579.89 -15.6389" stroke="#3DDEED" stroke-opacity="0.05" stroke-width="0.5" stroke-linecap="round" stroke-linejoin="round"/>
<path d="M1930.36 -15.6389C1678.57 -17.241 1681.51 25.4164 1532.91 56.2911C1305.36 100.95 1038.94 181.356 832.131 86.1677C652.6 0.566192 566.749 -76.3288 361.459 -72.3056C-7.57602 -62.7034 47.0393 -8.17616 -579.885 -15.644" stroke="#3DDEED" stroke-opacity="0.05" stroke-width="0.5" stroke-linecap="round" stroke-linejoin="round"/>
<path d="M1930.36 -15.6388C1676.83 -17.5633 1684.93 22.5809 1532.91 55.718C1326 98.2116 1239.06 131.354 1083.15 134.65C934.525 136.211 893.019 120.088 832.131 90.2729C653.792 -0.401055 569.646 -84.5182 361.459 -73.6517C-107.552 -46.5954 -30.1318 -7.96618 -579.88 -15.6388" stroke="#3DDEED" stroke-opacity="0.05" stroke-width="0.5" stroke-linecap="round" stroke-linejoin="round"/>
<path d="M1930.36 -15.6388C1812.15 -16.3503 1770.55 -19.534 1647.96 20.6358C1526.3 61.5479 1569.6 44.5699 1428.31 79.0684C1272.75 118.071 1181.45 144.155 1020.4 138.883C922.512 134.973 894.034 133.273 769.362 58.1902C430.28 -147.778 504.416 -72.7867 -297.482 -16.2787C-463.516 -5.80112 -491.764 -14.2517 -579.885 -15.644" stroke="#3DDEED" stroke-opacity="0.05" stroke-width="0.5" stroke-linecap="round" stroke-linejoin="round"/>
<path d="M1930.36 -15.6388C1813.18 -16.4117 1771.24 -20.9262 1647.96 18.7165C1514.6 62.5819 1564.6 43.1726 1438.77 75.3371C1276.03 117.805 1189.04 147.907 1020.4 143.945C921.928 140.92 893.507 139.589 769.362 61.1487C503.132 -108.596 470.517 -83.1874 288.238 -66.5882C-556.971 7.47115 -375.567 -12.2452 -579.88 -15.6388" stroke="#3DDEED" stroke-opacity="0.05" stroke-width="0.5" stroke-linecap="round" stroke-linejoin="round"/>
<path d="M1930.36 -15.6388C1848.31 -16.2428 1808.63 -20.358 1731.64 -5.72427C1651.88 10.9569 1619.03 29.5318 1543.36 48.245C1337.71 96.6198 1270.26 129.583 1135.45 144.508C928.372 164.849 874.073 130.653 800.752 84.7808C685.062 10.5832 577.009 -77.8079 434.675 -79.1438C373.831 -77.9051 366.376 -69.9305 246.406 -60.5432C150.544 -53.403 95.1957 -52.4714 -56.9151 -40.3918C-528.219 -0.585339 -316.739 -11.1396 -579.88 -15.6388" stroke="#3DDEED" stroke-opacity="0.05" stroke-width="0.5" stroke-linecap="round" stroke-linejoin="round"/>
<path d="M1930.36 -15.6389C1824.3 -16.4937 1776.89 -23.8541 1658.43 11.2843C1406.43 88.4915 1694.51 -0.636602 1302.8 112.323C1184.39 145.9 1102.86 158.605 968.102 152.693C782.701 141.115 660.577 -81.2271 434.68 -79.3845C358.079 -76.3595 359.956 -62.3962 162.738 -53.2751C-242.8 -36.2459 -258.643 -17.7324 -402.068 -11.5953C-487.235 -8.72382 -507.44 -14.3593 -579.88 -15.6338" stroke="#3DDEED" stroke-opacity="0.05" stroke-width="0.5" stroke-linecap="round" stroke-linejoin="round"/>
<path d="M1930.36 -15.6388C1830 -16.3657 1781.64 -24.7651 1668.87 6.23244C1624.71 18.9723 1605.65 26.3941 1564.29 37.9926C1286.3 111.535 1275.52 128.513 1156.36 148.613C1089.3 159.045 969.515 166.497 905.347 148.439C811.864 117.002 741.214 39.4872 622.939 -27.8208C451.629 -121.054 413.417 -61.9765 194.104 -52.5892C70.4185 -47.8802 -13.0629 -51.3761 -182.434 -34.3315C-281.366 -24.0792 -321.057 -15.6951 -402.078 -11.6823C-486.819 -8.35012 -506.138 -14.3132 -579.89 -15.644" stroke="#3DDEED" stroke-opacity="0.05" stroke-width="0.5" stroke-linecap="round" stroke-linejoin="round"/>
<path d="M1930.36 -15.6388C1764.37 -16.9133 1776.97 -41.175 1302.79 113.536C1183.82 151.812 1103.79 167.239 968.098 163.795C829.149 157.427 760.38 44.6671 602.021 -39.6548C439.257 -121.622 411.708 -54.8771 173.185 -49.9071C57.8168 -48.0235 -26.2008 -52.625 -171.973 -37.9094C-267.428 -27.826 -302.993 -19.0836 -381.16 -13.0438C-475.098 -6.75318 -503.499 -14.2261 -579.885 -15.6388" stroke="#3DDEED" stroke-opacity="0.05" stroke-width="0.5" stroke-linecap="round" stroke-linejoin="round"/>
<path d="M1930.36 -15.6388C1827.89 -16.4731 1779.15 -27.5291 1658.43 4.88628C1426.79 69.7631 1473.59 52.9386 1376.01 86.9611C1292.91 116.254 1234.47 138.115 1156.36 154.218C1089.52 167.065 970.199 178.234 905.348 159.746C810.983 127.213 740.956 43.8789 622.939 -26.5412C447.789 -126.203 409.774 -52.4715 204.565 -47.1994C93.4626 -45.2493 12.3129 -54.1247 -119.675 -45.0599C-213.924 -37.9247 -256.292 -28.5835 -328.862 -19.0529C-454.701 -3.43127 -493.273 -14.0675 -579.885 -15.6388" stroke="#3DDEED" stroke-opacity="0.05" stroke-width="0.5" stroke-linecap="round" stroke-linejoin="round"/>
<path d="M1930.36 -15.6389C1831.86 -16.4885 1782.71 -27.6878 1668.87 -0.175963C1305.1 92.9907 1308.82 121.501 1156.36 156.342C1088.99 170.771 971.013 183.997 905.348 165.243C810.596 132.367 740.779 46.8783 622.939 -24.4171C446.592 -126.004 406.652 -45.7049 204.565 -43.3964C96.8045 -43.2122 16.1336 -54.6776 -109.213 -48.0594C-199.699 -42.516 -245.883 -32.448 -318.4 -21.6019C-451.92 -2.50998 -493.354 -14.0982 -579.885 -15.644" stroke="#3DDEED" stroke-opacity="0.05" stroke-width="0.5" stroke-linecap="round" stroke-linejoin="round"/>
<path d="M1930.36 -15.6389C1830.92 -16.5449 1782.49 -28.4505 1668.87 -2.43321C1318.67 82.9124 1334.09 111.433 1166.83 155.841C1098.84 172.895 983.021 188.609 915.799 173.73C772.843 132.833 654.458 -66.2812 466.055 -73.1655C372.04 -72.6486 357.399 -39.1583 204.57 -39.5883C-11.6793 -42.6389 -10.3722 -74.0869 -307.939 -24.4581C-450.44 -1.47095 -489.394 -14.0675 -579.88 -15.6389" stroke="#3DDEED" stroke-opacity="0.05" stroke-width="0.5" stroke-linecap="round" stroke-linejoin="round"/>
<path d="M1930.36 -15.6389C1831.12 -16.5909 1782.69 -29.3104 1668.87 -4.69049C1336.99 72.0253 1336.31 108.935 1166.83 157.729C1099.41 176.146 984.199 194.275 915.799 179.237C772.417 138.131 654.827 -65.8717 466.055 -70.6677C371.049 -69.0145 354.593 -33.1697 204.57 -35.7802C-12.6943 -42.2192 -12.4932 -78.5451 -307.939 -25.7479C-450.187 -1.1536 -489.246 -14.088 -579.88 -15.6338" stroke="#3DDEED" stroke-opacity="0.05" stroke-width="0.5" stroke-linecap="round" stroke-linejoin="round"/>
<path d="M1930.36 -15.6389C1828.37 -16.6472 1779.34 -31.0967 1658.43 -4.66483C1306.59 76.6781 1351 105.214 1156.37 162.71C1088.15 181.827 973.225 201.226 905.352 181.735C763.531 131.599 645.778 -73.4726 455.598 -67.8679C364.231 -61.306 343.38 -25.6711 194.113 -32.4531C-4.93319 -43.9953 -36.9593 -80.0448 -297.477 -29.0391C-448.065 -0.334616 -484.731 -14.0572 -579.88 -15.6389" stroke="#3DDEED" stroke-opacity="0.05" stroke-width="0.5" stroke-linecap="round" stroke-linejoin="round"/>
<path d="M1930.36 -15.6389C1832.64 -16.6216 1783.23 -30.7282 1668.87 -9.04119C1356.84 54.7607 1344.42 101.37 1166.83 160.565C1098.76 182.211 986.052 204.533 915.799 189.295C772.541 148.245 656.124 -63.205 466.055 -63.8038C369.225 -59.8268 350.437 -20.1841 204.57 -27.0889C101.161 -33.5587 25.58 -55.2406 -88.2901 -56.8632C-277.296 -56.9502 -291.847 -2.80685 -548.501 -14.8762C-559.297 -15.2448 -559.929 -15.3215 -579.88 -15.6389" stroke="#3DDEED" stroke-opacity="0.05" stroke-width="0.5" stroke-linecap="round" stroke-linejoin="round"/>
<path d="M1930.36 -15.6389C1767.43 -17.3024 1794.6 -40.0438 1564.29 12.2569C1494.42 27.643 1466.6 32.7922 1386.48 66.3643C1306.88 100.484 1073.41 227.658 915.795 193.692C771.364 152.396 656.895 -60.6508 466.05 -59.0948C368.675 -53.9968 348.297 -12.9005 204.565 -22.0062C100.4 -30.334 25.3454 -54.9642 -88.2948 -58.3475C-274.716 -61.0347 -302.806 -1.25591 -538.049 -14.4207C-552.949 -15.1065 -555.845 -15.2703 -579.885 -15.6338" stroke="#3DDEED" stroke-opacity="0.05" stroke-width="0.5" stroke-linecap="round" stroke-linejoin="round"/>
<path d="M1930.36 -15.6389C1831.57 -16.6472 1783.22 -31.5779 1668.87 -13.1667C1479.48 20.0932 1419.09 48.6697 1376.01 67.6184C1295.14 104.052 1055.84 238.008 905.352 195.094C761.357 144.119 648.492 -65.9792 455.598 -53.7358C361.172 -43.7292 337.745 -3.98924 194.113 -17.9525C93.4194 -29.382 20.2702 -54.9284 -88.2901 -59.8472C-265.154 -64.8941 -312.075 -2.11588 -538.044 -14.477C-553.083 -15.1475 -556.07 -15.3062 -579.88 -15.6491" stroke="#3DDEED" stroke-opacity="0.05" stroke-width="0.5" stroke-linecap="round" stroke-linejoin="round"/>
<path d="M1930.36 -15.6388C1831.02 -16.6523 1783.54 -32.059 1668.87 -15.2294C1484.85 14.4578 1424.62 41.9031 1365.56 69.2205C1276.1 111.376 1041.32 247.646 894.881 195.785C751.776 135.397 639.592 -70.4578 445.132 -47.6857C355.144 -33.5229 326.972 4.50749 183.647 -14.4309C82.3642 -29.4332 9.15281 -57.1753 -98.7563 -61.7769C-273.394 -65.9638 -294.743 -3.94823 -548.51 -14.9683C-559.465 -15.3061 -559.843 -15.3676 -579.89 -15.644" stroke="#3DDEED" stroke-opacity="0.05" stroke-width="0.5" stroke-linecap="round" stroke-linejoin="round"/>
<path d="M1930.36 -15.6388C1829.18 -16.6881 1779.46 -33.5331 1658.43 -15.7566C1482.7 12.3183 1434.09 33.5907 1365.56 66.1238C1275.85 109.575 1041.89 252.252 894.881 200.187C751.23 139.436 640.501 -67.8269 445.132 -42.7463C357.131 -27.9027 327.705 9.4827 194.108 -8.15048C35.0792 -32.105 -54.3297 -92.9331 -255.646 -46.8207C-457.239 0.960395 -432.534 -13.745 -579.88 -15.6388" stroke="#3DDEED" stroke-opacity="0.05" stroke-width="0.5" stroke-linecap="round" stroke-linejoin="round"/>
<path d="M1930.36 -15.6389C1829.4 -16.6523 1779.26 -33.5484 1658.43 -17.4713C1485.28 7.77819 1436.05 28.9841 1365.56 63.022C1270.67 109.831 1051.59 247.927 905.352 206.529C760.519 155.283 650.628 -57.8152 455.598 -38.6157C361.986 -25.4817 335.207 15.3382 204.575 -1.02048C41.1837 -25.0722 -49.2833 -96.9204 -255.636 -48.6531C-458.316 0.556017 -431.969 -13.8525 -579.88 -15.6389" stroke="#3DDEED" stroke-opacity="0.05" stroke-width="0.5" stroke-linecap="round" stroke-linejoin="round"/>
<path d="M1930.36 -15.6389C1831.55 -16.6012 1783.42 -32.4173 1668.87 -20.3582C1490.98 0.857956 1431.2 27.7402 1365.56 59.9201C1260.84 112.441 1041.17 256.9 894.881 205.203C750.508 144.278 642.704 -61.5671 445.132 -31.4653C357.284 -14.6357 324.487 24.2341 194.108 3.1152C25.2257 -27.8823 -54.9138 -100.263 -266.102 -47.8905C-452.758 0.0492488 -445.806 -14.1238 -579.88 -15.6389" stroke="#3DDEED" stroke-opacity="0.05" stroke-width="0.5" stroke-linecap="round" stroke-linejoin="round"/>
<path d="M1930.36 -15.6389C1851.45 -16.3811 1606.31 -59.448 1376.01 51.6179C1264.77 106.974 1064.96 245.255 915.799 214.227C771.799 173.617 665.939 -36.4916 476.512 -29.6329C374.075 -21.3614 349.916 25.7747 225.488 13.5671C120.6 0.330743 44.5879 -42.6492 -67.3718 -62.2939C-249.632 -90.379 -310.146 -6.19021 -506.664 -13.2435C-541.51 -14.8507 -543.813 -15.2704 -579.88 -15.644" stroke="#3DDEED" stroke-opacity="0.05" stroke-width="0.5" stroke-linecap="round" stroke-linejoin="round"/>
<path d="M1930.36 -15.6388C1828.36 -16.5653 1778.8 -33.4307 1658.43 -22.4003C1492.12 -5.15617 1440.88 15.6607 1365.56 53.7166C1255.37 110.834 1051.02 254.622 905.352 213.659C762.659 163.37 656.962 -41.2568 466.055 -23.3575C367.573 -9.94195 339.444 35.4334 215.031 18.2302C113.509 1.38014 39.9149 -41.6049 -67.3718 -62.6828C-249.072 -94.269 -309.389 -6.9118 -506.664 -13.3713C-542.277 -14.9171 -543.737 -15.2959 -579.88 -15.6388" stroke="#3DDEED" stroke-opacity="0.05" stroke-width="0.5" stroke-linecap="round" stroke-linejoin="round"/>
<path d="M1930.36 -15.6388C1839.22 -16.4373 1596.51 -60.2004 1386.48 40.0759C1263.18 101.144 1067.24 250.236 915.799 218.972C771.833 178.556 666.897 -31.0659 476.512 -19.0426C373.458 -8.03789 347.139 40.3369 225.488 25.7851C123.621 10.4552 51.2 -34.9048 -56.9151 -60.7992C-242.718 -101.174 -303.879 -10.5715 -496.208 -13.1922C-536.474 -14.4002 -531.834 -15.2191 -579.885 -15.6439" stroke="#3DDEED" stroke-opacity="0.05" stroke-width="0.5" stroke-linecap="round" stroke-linejoin="round"/>
<path d="M1930.36 -15.6388C1827.5 -16.4783 1586.86 -62.2785 1376.01 42.6197C1256.39 104.246 1053.82 257.791 905.352 216.039C762.343 165.704 658.786 -36.7065 466.055 -13.0489C365.701 3.39169 332.737 52.4575 204.57 28.3443C44.2192 -6.42556 -52.8454 -105.709 -245.184 -60.272C-439.921 -10.9298 -370.808 -13.9651 -579.88 -15.6388" stroke="#3DDEED" stroke-opacity="0.05" stroke-width="0.5" stroke-linecap="round" stroke-linejoin="round"/>
<path d="M1930.36 -15.6389C1822.98 -16.463 1585.76 -60.8249 1386.48 34.814C1257.3 99.2557 1080.07 241.565 926.27 220.891C778.153 190.104 673.834 -28.778 476.516 -9.69632C370.949 4.96813 340.277 56.977 215.031 36.4212C109.219 15.6709 32.4026 -38.7642 -77.8287 -64.9248C-258.279 -102.97 -296.625 -5.89328 -538.039 -14.9376C-553.317 -15.3778 -556.415 -15.47 -579.876 -15.644" stroke="#3DDEED" stroke-opacity="0.05" stroke-width="0.5" stroke-linecap="round" stroke-linejoin="round"/>
<path d="M1930.36 -15.6388C1790.97 -16.6471 1761.07 -41.3541 1553.83 -17.3023C1326.58 10.5678 1221.26 174.308 1009.93 216.746C938.341 229.286 904.687 223.492 842.588 183.905C721.129 101.262 630.969 -22.6051 476.516 -5.04865C353.875 13.987 318.143 88.6452 131.359 17.4266C-3.4537 -36.1639 -88.3236 -97.3605 -234.718 -66.0815C-303.543 -49.7791 -346.28 -30.3954 -422.987 -18.5512C-485.32 -10.2644 -500.579 -15.1167 -579.88 -15.6388" stroke="#3DDEED" stroke-opacity="0.05" stroke-width="0.5" stroke-linecap="round" stroke-linejoin="round"/>
<path d="M1930.36 -15.6388C1797.88 -16.5141 1754.59 -39.9005 1564.29 -20.4912C1320.93 5.58238 1226.13 172.312 1009.93 216.438C938.786 229.112 904.988 223.328 842.583 183.711C719.645 100.443 631.577 -20.6499 476.512 -0.406254C353.372 20.7126 315.405 95.8724 131.354 22.4632C-2.76897 -33.3744 -88.4049 -98.8756 -234.722 -67.7552C-303.28 -51.4938 -346.031 -31.5983 -422.991 -19.1604C-484.697 -10.5306 -500.186 -15.1628 -579.885 -15.6388" stroke="#3DDEED" stroke-opacity="0.05" stroke-width="0.5" stroke-linecap="round" stroke-linejoin="round"/>
<path d="M1930.36 -15.6388C1794.53 -16.468 1747.55 -40.4686 1553.83 -21.4381C1324.2 3.08967 1214.71 179.109 999.482 218.015C937.067 227.545 902.269 223.737 832.136 176.463C709.609 89.6944 622.422 -23.1733 466.055 6.19659C346.909 33.0737 305.23 103.13 120.897 22.9443C-14.643 -38.2011 -97.0088 -102.136 -245.179 -66.9465C-314.398 -49.0063 -357.594 -29.3769 -433.448 -18.2339C-489.596 -11.283 -502.322 -15.2396 -579.88 -15.6388" stroke="#3DDEED" stroke-opacity="0.05" stroke-width="0.5" stroke-linecap="round" stroke-linejoin="round"/>
<path d="M1930.36 -15.6388C1793.12 -16.4117 1732.94 -40.5966 1543.36 -21.5353C1389.46 -3.90726 1300.87 81.5151 1156.37 159.137C964.056 259.301 890.917 215.128 821.67 166.395C703.553 79.7237 617.481 -21.6837 466.06 9.72327C348.383 38.4636 302.458 109.534 120.902 28.0526C-7.86339 -32.018 -93.3414 -100.324 -234.718 -70.8519C-306.124 -54.0377 -352.217 -31.2502 -433.443 -18.7867C-489.016 -11.5287 -502.073 -15.2754 -579.876 -15.6439" stroke="#3DDEED" stroke-opacity="0.05" stroke-width="0.5" stroke-linecap="round" stroke-linejoin="round"/>
<path d="M1930.36 -15.6389C1768.51 -16.4783 1569.08 -63.6195 1386.48 23.4715C1251.82 90.4826 1068.5 245.138 915.799 212.272C770.976 170.566 673.471 -26.3723 476.512 10.7674C370.848 34.7884 332.421 87.9797 215.027 66.4309C111.053 43.2544 39.4888 -18.9761 -67.3766 -59.4224C-249.129 -122.897 -309.083 -11.2012 -517.131 -14.692C-552.786 -15.5416 -549.42 -15.4648 -579.89 -15.6389" stroke="#3DDEED" stroke-opacity="0.05" stroke-width="0.5" stroke-linecap="round" stroke-linejoin="round"/>
<path d="M1930.36 -15.6389C1746.14 -16.4783 1563.23 -65.6976 1376.01 26.906C1245.22 94.2652 1055.65 249.918 905.352 206.309C756.784 153.133 664.383 -39.3886 455.598 19.5251C359.324 49.8112 312.939 98.4112 194.113 67.1679C89.8333 35.8633 17.3879 -29.858 -88.2901 -65.8717C-259.299 -118.392 -303.658 -10.2901 -538.044 -15.2294C-556.3 -15.5416 -554.122 -15.5007 -579.88 -15.6338" stroke="#3DDEED" stroke-opacity="0.05" stroke-width="0.5" stroke-linecap="round" stroke-linejoin="round"/>
<path d="M1930.36 -15.6389C1733.49 -16.4425 1560.59 -65.5953 1376.01 25.1298C1245.18 92.1 1055.93 247.39 905.352 203.345C756.344 149.755 665.719 -40.1001 455.598 23.1387C360.841 54.643 315.505 100.694 204.575 75.7209C100.055 47.9634 28.7304 -19.4112 -77.8286 -61.5568C-251.657 -124.663 -313.258 -12.8544 -517.121 -14.9018C-553.437 -15.5723 -549.99 -15.5109 -579.88 -15.644" stroke="#3DDEED" stroke-opacity="0.05" stroke-width="0.5" stroke-linecap="round" stroke-linejoin="round"/>
<path d="M1930.36 -15.6388C1785.14 -16.1609 1699.02 -37.9708 1543.36 -26.0703C1390.92 -11.9075 1300.61 73.6377 1156.37 149.934C959.69 250.732 885.396 198.672 821.67 154.945C698.827 67.4239 618.597 -20.3223 466.06 23.4152C348.053 61.1896 291.705 134.466 120.902 48.5776C-8.79696 -19.6313 -93.9254 -103.83 -234.718 -76.4413C-303.022 -60.9579 -344.279 -38.887 -422.987 -22.8661C-483.347 -11.9484 -504.701 -15.3522 -579.88 -15.6337" stroke="#3DDEED" stroke-opacity="0.05" stroke-width="0.5" stroke-linecap="round" stroke-linejoin="round"/>
<path d="M1930.36 -15.6389C1692.12 -16.724 1552.84 -66.5474 1365.56 27.4894C1233.32 96.118 1045.49 246.494 894.881 191.573C747.692 128.723 661.75 -41.4054 455.593 29.0403C358.088 65.2178 308.041 114.478 194.108 84.2381C89.1008 51.9763 17.9337 -20.4605 -88.2949 -63.855C-260.299 -127.949 -276.774 -14.6408 -579.88 -15.6389" stroke="#3DDEED" stroke-opacity="0.05" stroke-width="0.5" stroke-linecap="round" stroke-linejoin="round"/>
<path d="M1930.36 -15.6388C1768.31 -16.2888 1626.86 -41.7533 1501.53 -21.6479C1357.95 5.61824 1255.8 102.219 1114.53 163.114C933.519 237.225 880.221 188.594 758.925 99.2507C637.566 11.1257 564.91 -17.3688 424.223 44.3038C297.632 101.989 242.6 134.297 79.0654 34.809C-69.3301 -57.5592 -129.547 -113.591 -287.011 -64.6585C-458.11 -9.50174 -446.452 -15.2498 -579.88 -15.6388" stroke="#3DDEED" stroke-opacity="0.05" stroke-width="0.5" stroke-linecap="round" stroke-linejoin="round"/>
<path d="M1930.36 -15.6389C1775.03 -16.1763 1715.51 -29.8478 1595.66 -29.0442C1313.38 -24.4376 1209.66 180.143 968.097 193.651C777.894 197.351 706.483 -76.2725 434.675 42.3433C341.451 84.9188 285.902 127.597 173.19 88.425C8.36277 24.3365 -74.5489 -124.463 -266.102 -72.2442C-425.27 -25.4306 -393.804 -15.1885 -579.88 -15.6389" stroke="#3DDEED" stroke-opacity="0.05" stroke-width="0.5" stroke-linecap="round" stroke-linejoin="round"/>
<path d="M1930.36 -15.6389C1757.28 -16.1405 1705.4 -30.114 1585.21 -28.9623C1316.09 -23.6493 1198.03 185.39 957.65 188.972C929.909 188.077 911.912 185.006 873.968 166.523C713.751 80.5886 647.683 -52.1797 434.675 44.9844C339.392 90.2472 283.642 132.336 173.19 93.9478C71.6298 54.2693 2.83285 -20.7625 -98.7515 -65.452C-236.001 -120.271 -303.309 -43.3401 -454.371 -19.4931C-496.404 -13.96 -505.783 -15.4239 -579.885 -15.6389" stroke="#3DDEED" stroke-opacity="0.05" stroke-width="0.5" stroke-linecap="round" stroke-linejoin="round"/>
<path d="M1930.36 -15.6388C1720.11 -16.1353 1615.75 -40.2433 1501.53 -22.994C1361.7 2.15307 1263.98 89.7713 1125 148.327C935.3 224.096 876.429 168.714 769.372 92.8065C645.806 6.03288 574.438 -18.8737 434.68 47.6154C360.444 84.2433 319.56 113.516 246.411 114.079C180.224 111.059 131.263 83.0302 79.0606 48.8899C-68.43 -50.2193 -128.389 -117.927 -287.016 -68.3848C-458.431 -12.3834 -442.722 -15.3214 -579.88 -15.6388" stroke="#3DDEED" stroke-opacity="0.05" stroke-width="0.5" stroke-linecap="round" stroke-linejoin="round"/>
<path d="M1930.36 -15.6389C1704.29 -16.2992 1611.42 -39.2914 1501.53 -22.989C1361.77 1.74859 1263.89 87.949 1125 144.355C935.928 217.063 877.76 162.827 769.372 86.8639C643.647 -0.0633564 572.992 -19.3651 434.68 49.4273C359.625 87.9899 318.344 117.365 246.411 118.911C180.066 116.735 131.272 88.5581 79.0606 53.7268C-69.9142 -48.6224 -128.786 -118.95 -287.016 -69.5314C-450.809 -15.8692 -433.889 -15.1782 -579.88 -15.6389" stroke="#3DDEED" stroke-opacity="0.05" stroke-width="0.5" stroke-linecap="round" stroke-linejoin="round"/>
<path d="M1930.36 -15.6389C1677.75 -15.9972 1602.29 -40.5249 1491.08 -21.1515C1352.58 6.74425 1252.66 93.221 1114.53 144.237C933.917 207.158 883.778 159.725 769.367 80.8906C640.659 -6.68665 570.646 -19.3446 434.675 51.2239C360.626 90.7642 322.706 117.406 256.868 123.369C56.7777 130.489 -39.7794 -137.126 -266.097 -76.9941C-338.61 -55.865 -385.344 -30.9227 -464.823 -18.9915C-499.66 -14.7073 -503.571 -15.4648 -579.876 -15.644" stroke="#3DDEED" stroke-opacity="0.05" stroke-width="0.5" stroke-linecap="round" stroke-linejoin="round"/>
<path d="M1930.36 -15.6389C1669.23 -16.2122 1605.72 -37.8992 1501.53 -22.9532C1357.6 1.66668 1258.27 89.1621 1114.53 140.091C928.171 202.209 882.404 150.599 758.925 67.9204C628.412 -17.2256 558.925 -15.8436 424.223 58.8145C281.942 138.996 221.696 162.367 79.0654 63.411C-59.4096 -35.8467 -125.497 -118.961 -276.554 -75.085C-440.022 -24.0127 -409.729 -15.3727 -579.88 -15.6389" stroke="#3DDEED" stroke-opacity="0.05" stroke-width="0.5" stroke-linecap="round" stroke-linejoin="round"/>
<path d="M1930.36 -15.6388C1550.33 -16.4014 1537.23 -64.6534 1323.73 39.477C1196.07 102.685 1095.44 166.011 947.184 159.715C825.768 145.158 739.634 2.71608 591.569 1.04234C417.583 8.10585 335.964 192.944 152.277 112.523C46.2301 61.0258 -24.8842 -31.6852 -130.127 -75.2794C-192.742 -97.9491 -232.228 -91.0852 -297.477 -69.5108C-464.521 -12.0047 -455.271 -15.5415 -579.88 -15.6388" stroke="#3DDEED" stroke-opacity="0.05" stroke-width="0.5" stroke-linecap="round" stroke-linejoin="round"/>
<path d="M1930.36 -15.6388C1821.36 -15.6388 1809.24 -12.8595 1710.73 -19.8463C1622.81 -26.444 1566.28 -31.8696 1501.52 -22.9173C1362.26 0.115833 1263.84 80.4811 1125 128.416C929.828 191.696 874.614 132.475 769.367 62.9708C635.905 -23.4855 566.481 -20.3786 434.675 56.6034C283.881 146.325 223.463 177.118 79.0558 73.0849C-66.6058 -35.6419 -126.828 -124.166 -287.02 -74.1124C-452.59 -19.2167 -426.793 -15.6388 -579.88 -15.6388" stroke="#3DDEED" stroke-opacity="0.05" stroke-width="0.5" stroke-linecap="round" stroke-linejoin="round"/>
</g>
<g filter="url(#filter0_f_0_1)">
<ellipse cx="360.861" cy="206.749" rx="360.861" ry="206.749" transform="matrix(-0.629852 0.776715 -0.779742 -0.626101 630 541.891)" fill="#530070" fill-opacity="0.5"/>
</g>
<path d="M11 0L14.8891 7.11091L22 11L14.8891 14.8891L11 22L7.11091 14.8891L0 11L7.11091 7.11091L11 0Z" fill="#BF23F5"/>
</g>
<defs>
<filter id="filter0_f_0_1" x="-495.179" y="-74.0763" width="1473.36" height="1533.62" filterUnits="userSpaceOnUse" color-interpolation-filters="sRGB">
<feFlood flood-opacity="0" result="BackgroundImageFix"/>
<feBlend mode="normal" in="SourceGraphic" in2="BackgroundImageFix" result="shape"/>
<feGaussianBlur stdDeviation="229" result="effect1_foregroundBlur_0_1"/>
</filter>
<clipPath id="clip0_0_1">
<rect width="1920" height="4614" fill="white" transform="translate(-256 -556)"/>
</clipPath>
<clipPath id="clip1_0_1">
<rect width="2244" height="675" fill="white" transform="translate(-580 -406)"/>
</clipPath>
</defs>
</svg>
